<svg width="25" height="25" viewBox="0 0 25 25" fill="none" xmlns="http://www.w3.org/2000/svg">
<path d="M11.0563 16.61V9.9425H10.265C9.6983 10.2446 9.15062 10.581 8.625 10.95V11.8187C9.09375 11.4975 9.83625 11.0437 10.1975 10.8475H10.2125V16.61H11.0563ZM12.5413 14.9787C12.6 15.7787 13.2838 16.7362 14.67 16.7362C16.2425 16.7362 17.17 15.4037 17.17 13.1475C17.17 10.73 16.1938 9.8125 14.7288 9.8125C13.5713 9.8125 12.4825 10.6525 12.4825 12.0737C12.4825 13.5237 13.5125 14.2862 14.5775 14.2862C15.51 14.2862 16.115 13.8162 16.3063 13.2987H16.34C16.335 14.9437 15.7638 16.0037 14.7088 16.0037C13.8788 16.0037 13.4488 15.4412 13.3963 14.9787H12.5413ZM16.2325 12.0825C16.2325 12.9525 15.5338 13.5575 14.7525 13.5575C14.0013 13.5575 13.3225 13.0787 13.3225 12.0575C13.3225 11.0287 14.05 10.545 14.7825 10.545C15.5738 10.545 16.2325 11.0425 16.2325 12.0825Z" fill="#CCCCCC"/>
<path d="M7.375 2C7.54076 2 7.69973 2.06585 7.81694 2.18306C7.93415 2.30027 8 2.45924 8 2.625V3.25H18V2.625C18 2.45924 18.0658 2.30027 18.1831 2.18306C18.3003 2.06585 18.4592 2 18.625 2C18.7908 2 18.9497 2.06585 19.0669 2.18306C19.1842 2.30027 19.25 2.45924 19.25 2.625V3.25H20.5C21.163 3.25 21.7989 3.51339 22.2678 3.98223C22.7366 4.45107 23 5.08696 23 5.75V19.5C23 20.163 22.7366 20.7989 22.2678 21.2678C21.7989 21.7366 21.163 22 20.5 22H5.5C4.83696 22 4.20107 21.7366 3.73223 21.2678C3.26339 20.7989 3 20.163 3 19.5V5.75C3 5.08696 3.26339 4.45107 3.73223 3.98223C4.20107 3.51339 4.83696 3.25 5.5 3.25H6.75V2.625C6.75 2.45924 6.81585 2.30027 6.93306 2.18306C7.05027 2.06585 7.20924 2 7.375 2V2ZM4.25 7V19.5C4.25 19.8315 4.3817 20.1495 4.61612 20.3839C4.85054 20.6183 5.16848 20.75 5.5 20.75H20.5C20.8315 20.75 21.1495 20.6183 21.3839 20.3839C21.6183 20.1495 21.75 19.8315 21.75 19.5V7H4.25Z" fill="#CCCCCC"/>
</svg>
