<svg width="25" height="25" viewBox="0 0 25 25" fill="none" xmlns="http://www.w3.org/2000/svg">
<path d="M19.3359 10.9375C19.3359 11.0929 19.2742 11.2419 19.1643 11.3518C19.0544 11.4617 18.9054 11.5234 18.75 11.5234H14.8438C14.6883 11.5234 14.5393 11.4617 14.4294 11.3518C14.3195 11.2419 14.2578 11.0929 14.2578 10.9375C14.2578 10.7821 14.3195 10.6331 14.4294 10.5232C14.5393 10.4133 14.6883 10.3516 14.8438 10.3516H18.75C18.9054 10.3516 19.0544 10.4133 19.1643 10.5232C19.2742 10.6331 19.3359 10.7821 19.3359 10.9375ZM18.75 13.4766H14.8438C14.6883 13.4766 14.5393 13.5383 14.4294 13.6482C14.3195 13.7581 14.2578 13.9071 14.2578 14.0625C14.2578 14.2179 14.3195 14.3669 14.4294 14.4768C14.5393 14.5867 14.6883 14.6484 14.8438 14.6484H18.75C18.9054 14.6484 19.0544 14.5867 19.1643 14.4768C19.2742 14.3669 19.3359 14.2179 19.3359 14.0625C19.3359 13.9071 19.2742 13.7581 19.1643 13.6482C19.0544 13.5383 18.9054 13.4766 18.75 13.4766ZM12.5879 16.2598C12.6173 16.4066 12.5894 16.5592 12.5098 16.6861C12.4303 16.813 12.3051 16.9047 12.1601 16.9422C12.0151 16.9797 11.8612 16.9602 11.7301 16.8878C11.5989 16.8154 11.5005 16.6955 11.4551 16.5527C11.3161 16.0055 10.9987 15.5202 10.553 15.1735C10.1073 14.8269 9.55877 14.6387 8.99414 14.6387C8.42951 14.6387 7.881 14.8269 7.43531 15.1735C6.98962 15.5202 6.67219 16.0055 6.5332 16.5527C6.50077 16.6784 6.42756 16.7897 6.32505 16.8692C6.22254 16.9487 6.09654 16.992 5.9668 16.9922L5.82031 16.9727C5.67022 16.9336 5.54174 16.8366 5.46303 16.703C5.38431 16.5694 5.36179 16.41 5.40039 16.2598C5.52268 15.7833 5.73846 15.3359 6.03521 14.9436C6.33195 14.5513 6.70372 14.2219 7.12891 13.9746C6.66374 13.5906 6.32846 13.0723 6.16886 12.4906C6.00926 11.9088 6.03311 11.292 6.23717 10.7244C6.44122 10.1567 6.81553 9.66588 7.30897 9.3189C7.8024 8.97193 8.39092 8.78573 8.99414 8.78573C9.59736 8.78573 10.1859 8.97193 10.6793 9.3189C11.1728 9.66588 11.5471 10.1567 11.7511 10.7244C11.9552 11.292 11.979 11.9088 11.8194 12.4906C11.6598 13.0723 11.3245 13.5906 10.8594 13.9746C11.2846 14.2219 11.6563 14.5513 11.9531 14.9436C12.2498 15.3359 12.4656 15.7833 12.5879 16.2598ZM8.99414 13.4766C9.3418 13.4766 9.68166 13.3735 9.97073 13.1803C10.2598 12.9872 10.4851 12.7126 10.6181 12.3914C10.7512 12.0702 10.786 11.7168 10.7182 11.3758C10.6504 11.0348 10.4829 10.7216 10.2371 10.4758C9.99127 10.23 9.67805 10.0625 9.33707 9.99471C8.99609 9.92689 8.64265 9.9617 8.32146 10.0947C8.00026 10.2278 7.72572 10.4531 7.53257 10.7422C7.33942 11.0312 7.23633 11.3711 7.23633 11.7188C7.23889 12.1842 7.42491 12.6298 7.75401 12.9589C8.08311 13.288 8.52873 13.474 8.99414 13.4766ZM22.4609 5.46875V19.5312C22.4609 19.8939 22.3169 20.2416 22.0605 20.498C21.8041 20.7544 21.4564 20.8984 21.0938 20.8984H3.90625C3.54365 20.8984 3.1959 20.7544 2.9395 20.498C2.68311 20.2416 2.53906 19.8939 2.53906 19.5312V5.46875C2.53906 5.10615 2.68311 4.7584 2.9395 4.502C3.1959 4.24561 3.54365 4.10156 3.90625 4.10156H21.0938C21.4564 4.10156 21.8041 4.24561 22.0605 4.502C22.3169 4.7584 22.4609 5.10615 22.4609 5.46875ZM21.2891 5.46875C21.2891 5.41695 21.2685 5.36727 21.2319 5.33064C21.1952 5.29401 21.1455 5.27344 21.0938 5.27344H3.90625C3.85445 5.27344 3.80477 5.29401 3.76814 5.33064C3.73151 5.36727 3.71094 5.41695 3.71094 5.46875V19.5312C3.71094 19.583 3.73151 19.6327 3.76814 19.6694C3.80477 19.706 3.85445 19.7266 3.90625 19.7266H21.0938C21.1455 19.7266 21.1952 19.706 21.2319 19.6694C21.2685 19.6327 21.2891 19.583 21.2891 19.5312V5.46875Z" fill="#CCCCCC"/>
</svg>
