<svg width="40" height="40" viewBox="0 0 40 40" fill="none" xmlns="http://www.w3.org/2000/svg">
<path fill-rule="evenodd" clip-rule="evenodd" d="M33.375 26.6667C37.035 26.69 40 29.6683 40 33.3333C40 37.0133 37.0117 40 33.3333 40H6.66667C2.98667 40 0 37.0133 0 33.3333C0 29.6533 2.98667 26.6667 6.66667 26.6667H33.375ZM33.3333 36.6667C35.1717 36.6667 36.6667 35.1733 36.6667 33.3333C36.6667 31.5 35.1833 30.0117 33.355 30H6.66667C4.82667 30 3.33333 31.4933 3.33333 33.3333C3.33333 35.1733 4.82667 36.6667 6.66667 36.6667H33.3333ZM6.66667 31.6667C7.58667 31.6667 8.33333 32.4133 8.33333 33.3333C8.33333 34.2533 7.58667 35 6.66667 35C5.74667 35 5 34.2533 5 33.3333C5 32.4133 5.74667 31.6667 6.66667 31.6667ZM20 31.6667C20.92 31.6667 21.6667 32.4133 21.6667 33.3333C21.6667 34.2533 20.92 35 20 35C19.08 35 18.3333 34.2533 18.3333 33.3333C18.3333 32.4133 19.08 31.6667 20 31.6667ZM13.3333 31.6667C14.2533 31.6667 15 32.4133 15 33.3333C15 34.2533 14.2533 35 13.3333 35C12.4133 35 11.6667 34.2533 11.6667 33.3333C11.6667 32.4133 12.4133 31.6667 13.3333 31.6667ZM26.6667 31.6667C27.5867 31.6667 28.3333 32.4133 28.3333 33.3333C28.3333 34.2533 27.5867 35 26.6667 35C25.7467 35 25 34.2533 25 33.3333C25 32.4133 25.7467 31.6667 26.6667 31.6667ZM33.3333 31.6667C34.2533 31.6667 35 32.4133 35 33.3333C35 34.2533 34.2533 35 33.3333 35C32.4133 35 31.6667 34.2533 31.6667 33.3333C31.6667 32.4133 32.4133 31.6667 33.3333 31.6667ZM33.3333 25H6.66667V0H33.3333V25ZM16.6667 3.33333H10V21.6667H30V3.33333H23.3333V11.6667H16.6667V3.33333ZM28.3333 20H21.6667V16.6667H28.3333V20Z" fill="url(#paint0_linear_166_104)"/>
<defs>
<linearGradient id="paint0_linear_166_104" x1="20" y1="0" x2="20" y2="40" gradientUnits="userSpaceOnUse">
<stop stop-color="#F5821F"/>
<stop offset="1" stop-color="#EA6601"/>
</linearGradient>
</defs>
</svg>
