<svg width="40" height="40" viewBox="0 0 40 40" fill="none" xmlns="http://www.w3.org/2000/svg">
<path fill-rule="evenodd" clip-rule="evenodd" d="M8.33333 18.3333V20H21.6667V8.33333H5V6.66667C5 5.74667 5.74667 5 6.66667 5H23.3333C24.2533 5 25 5.74667 25 6.66667V10H32.7783C34.64 10 35.445 10.96 36.005 11.845C36.995 13.4117 38.565 15.8983 39.52 17.475C39.8333 17.995 40 18.5917 40 19.2V26.6667C40 28.4817 38.7617 30 36.6667 30H35C35 32.76 32.76 35 30 35C27.24 35 25 32.76 25 30H18.3333C18.3333 32.76 16.0933 35 13.3333 35C10.5733 35 8.33333 32.76 8.33333 30H6.66667C5.74667 30 5 29.2533 5 28.3333V18.3333H1.66667V15H13.3333V18.3333H8.33333ZM13.3333 28C14.4367 28 15.3333 28.8967 15.3333 30C15.3333 31.1033 14.4367 32 13.3333 32C12.23 32 11.3333 31.1033 11.3333 30C11.3333 28.8967 12.23 28 13.3333 28ZM30 28C31.1033 28 32 28.8967 32 30C32 31.1033 31.1033 32 30 32C28.8967 32 28 31.1033 28 30C28 28.8967 28.8967 28 30 28ZM25 23.3333H8.33333V26.6667H9.60833C10.5233 25.6433 11.8533 25 13.3333 25C14.8133 25 16.1433 25.6433 17.0583 26.6667H26.275C27.19 25.6433 28.52 25 30 25C31.48 25 32.81 25.6433 33.725 26.6667H36.6667V19.0417L33.815 14.16C33.5167 13.6483 32.9683 13.3333 32.3767 13.3333H25V23.3333ZM26.6667 15V20H35L32.6217 15.84C32.325 15.32 31.7733 15 31.175 15H26.6667ZM0 10H13.3333V13.3333H0V10Z" fill="url(#paint0_linear_166_111)"/>
<defs>
<linearGradient id="paint0_linear_166_111" x1="20" y1="5" x2="20" y2="35" gradientUnits="userSpaceOnUse">
<stop stop-color="#F5821F"/>
<stop offset="1" stop-color="#EA6601"/>
</linearGradient>
</defs>
</svg>
