<svg width="96" height="89" viewBox="0 0 96 89" fill="none" xmlns="http://www.w3.org/2000/svg">
<g opacity="0.5">
<path d="M34.2857 13.6912H20.5714V0L13.7143 0V13.6912H0L0 20.5368H13.7143V34.228H20.5714V20.5368H34.2857V13.6912Z" fill="url(#paint0_linear_198_14)"/>
<path d="M95.7223 49.9936L85.4366 26.034C85.1726 25.4182 84.7333 24.8933 84.1731 24.5246C83.613 24.1558 82.9567 23.9594 82.2857 23.9598H72V17.1142C72 16.2064 71.6388 15.3358 70.9958 14.6939C70.3528 14.052 69.4807 13.6914 68.5714 13.6914L44.5714 13.6914V20.537L65.1429 20.537V63.5136C63.5806 64.4193 62.2133 65.6247 61.12 67.0605C60.0266 68.4962 59.2288 70.1339 58.7726 71.8789H37.2274C36.4816 68.9413 34.7759 66.3359 32.3802 64.4748C29.9845 62.6137 27.0356 61.6033 24 61.6033C20.9644 61.6033 18.0155 62.6137 15.6198 64.4748C13.2241 66.3359 11.5184 68.9413 10.7726 71.8789H6.85714L6.85714 41.0738H0L0 75.3017C0 76.2095 0.361223 77.0801 1.00421 77.722C1.64719 78.3639 2.51926 78.7245 3.42857 78.7245H10.7726C11.5184 81.6621 13.2241 84.2675 15.6198 86.1286C18.0155 87.9897 20.9644 89.0002 24 89.0002C27.0356 89.0002 29.9845 87.9897 32.3802 86.1286C34.7759 84.2675 36.4816 81.6621 37.2274 78.7245H58.7726C59.5184 81.6621 61.2241 84.2675 63.6198 86.1286C66.0155 87.9897 68.9644 89.0002 72 89.0002C75.0356 89.0002 77.9845 87.9897 80.3802 86.1286C82.7759 84.2675 84.4816 81.6621 85.2274 78.7245H92.5714C93.4807 78.7245 94.3528 78.3639 94.9958 77.722C95.6388 77.0801 96 76.2095 96 75.3017V51.3422C96.0002 50.8785 95.9057 50.4196 95.7223 49.9936ZM24 82.1473C22.6438 82.1473 21.318 81.7458 20.1904 80.9936C19.0627 80.2414 18.1838 79.1723 17.6648 77.9214C17.1458 76.6705 17.01 75.2941 17.2746 73.9662C17.5392 72.6383 18.1923 71.4185 19.1513 70.4612C20.1103 69.5038 21.3321 68.8518 22.6622 68.5877C23.9924 68.3235 25.3711 68.4591 26.6241 68.9772C27.8771 69.4953 28.948 70.3728 29.7015 71.4985C30.455 72.6243 30.8571 73.9478 30.8571 75.3017C30.8544 77.1164 30.1311 78.8561 28.8457 80.1393C27.5604 81.4225 25.8178 82.1446 24 82.1473ZM72 30.8054H80.0229L87.3737 47.9194L72 47.9194V30.8054ZM72 82.1473C70.6438 82.1473 69.318 81.7458 68.1904 80.9936C67.0627 80.2414 66.1838 79.1723 65.6648 77.9214C65.1458 76.6705 65.01 75.2941 65.2746 73.9662C65.5392 72.6383 66.1923 71.4185 67.1513 70.4612C68.1103 69.5038 69.3321 68.8518 70.6622 68.5877C71.9924 68.3235 73.3711 68.4591 74.6241 68.9772C75.8771 69.4953 76.948 70.3728 77.7015 71.4985C78.455 72.6243 78.8571 73.9478 78.8571 75.3017C78.8553 77.1167 78.1323 78.8569 76.8467 80.1403C75.5612 81.4237 73.8181 82.1455 72 82.1473ZM89.1429 71.8789H85.2274C84.4722 68.9471 82.7638 66.3483 80.37 64.49C77.9762 62.6317 75.0323 61.619 72 61.6105V54.7649L89.1429 54.7649V71.8789Z" fill="url(#paint1_linear_198_14)"/>
</g>
<defs>
<linearGradient id="paint0_linear_198_14" x1="16.2518" y1="-5.08423" x2="19.1001" y2="32.6709" gradientUnits="userSpaceOnUse">
<stop stop-color="#F3F7FF"/>
<stop offset="1" stop-color="#DEEEFE"/>
</linearGradient>
<linearGradient id="paint1_linear_198_14" x1="45.505" y1="2.50503" x2="50.4401" y2="85.7546" gradientUnits="userSpaceOnUse">
<stop stop-color="#F3F7FF"/>
<stop offset="1" stop-color="#DEEEFE"/>
</linearGradient>
</defs>
</svg>
