<svg width="25" height="25" viewBox="0 0 25 25" fill="none" xmlns="http://www.w3.org/2000/svg">
<path d="M4.6875 12.5L6.25 10.9375H18.75L20.3125 12.5V20.3125L18.75 21.875H6.25L4.6875 20.3125V12.5ZM6.25 12.5V20.3125H18.75V12.5H6.25Z" fill="#CCCCCC"/>
<path d="M17.1875 10.9375V7.8125C17.1875 6.5693 16.6936 5.37701 15.8146 4.49794C14.9355 3.61886 13.7432 3.125 12.5 3.125C11.2568 3.125 10.0645 3.61886 9.18544 4.49794C8.30636 5.37701 7.8125 6.5693 7.8125 7.8125V10.9375H9.375V7.8125C9.375 6.9837 9.70424 6.18884 10.2903 5.60279C10.8763 5.01674 11.6712 4.6875 12.5 4.6875C13.3288 4.6875 14.1237 5.01674 14.7097 5.60279C15.2958 6.18884 15.625 6.9837 15.625 7.8125V10.9375H17.1875Z" fill="#CCCCCC"/>
</svg>
