<svg width="18" height="18" viewBox="0 0 18 18" fill="none" xmlns="http://www.w3.org/2000/svg">
<path d="M8.35714 5.78571C8.35714 5.61522 8.42487 5.4517 8.54543 5.33115C8.66599 5.21059 8.8295 5.14286 9 5.14286C9.1705 5.14286 9.33401 5.21059 9.45457 5.33115C9.57513 5.4517 9.64286 5.61522 9.64286 5.78571V8.35714H12.2143C12.3848 8.35714 12.5483 8.42487 12.6689 8.54543C12.7894 8.66599 12.8571 8.8295 12.8571 9C12.8571 9.1705 12.7894 9.33401 12.6689 9.45457C12.5483 9.57513 12.3848 9.64286 12.2143 9.64286H9.64286V12.2143C9.64286 12.3848 9.57513 12.5483 9.45457 12.6689C9.33401 12.7894 9.1705 12.8571 9 12.8571C8.8295 12.8571 8.66599 12.7894 8.54543 12.6689C8.42487 12.5483 8.35714 12.3848 8.35714 12.2143V9.64286H5.78571C5.61522 9.64286 5.4517 9.57513 5.33115 9.45457C5.21059 9.33401 5.14286 9.1705 5.14286 9C5.14286 8.8295 5.21059 8.66599 5.33115 8.54543C5.4517 8.42487 5.61522 8.35714 5.78571 8.35714H8.35714V5.78571ZM18 9C18 13.9706 13.9706 18 9 18C4.02943 18 0 13.9706 0 9C0 4.02943 4.02943 0 9 0C13.9706 0 18 4.02943 18 9ZM16.7143 9C16.7143 4.73979 13.2602 1.28571 9 1.28571C4.73979 1.28571 1.28571 4.73979 1.28571 9C1.28571 13.2602 4.73979 16.7143 9 16.7143C13.2602 16.7143 16.7143 13.2602 16.7143 9Z" fill="white"/>
</svg>
