<svg width="32" height="32" viewBox="0 0 32 32" fill="none" xmlns="http://www.w3.org/2000/svg">
<path d="M21.333 4H1.33301V21.3333H21.333V4Z" stroke="#CCCCCC" stroke-width="2" stroke-linecap="round" stroke-linejoin="round"/>
<path d="M21.333 10.6667H26.6663L30.6663 14.6667V21.3333H21.333V10.6667Z" stroke="#CCCCCC" stroke-width="2" stroke-linecap="round" stroke-linejoin="round"/>
<path d="M7.33333 28C9.17428 28 10.6667 26.5076 10.6667 24.6667C10.6667 22.8257 9.17428 21.3333 7.33333 21.3333C5.49238 21.3333 4 22.8257 4 24.6667C4 26.5076 5.49238 28 7.33333 28Z" stroke="#CCCCCC" stroke-width="2" stroke-linecap="round" stroke-linejoin="round"/>
<path d="M24.6663 28C26.5073 28 27.9997 26.5076 27.9997 24.6667C27.9997 22.8257 26.5073 21.3333 24.6663 21.3333C22.8254 21.3333 21.333 22.8257 21.333 24.6667C21.333 26.5076 22.8254 28 24.6663 28Z" stroke="#CCCCCC" stroke-width="2" stroke-linecap="round" stroke-linejoin="round"/>
</svg>
