<svg width="570" height="481" viewBox="0 0 570 481" fill="none" xmlns="http://www.w3.org/2000/svg">
<g clip-path="url(#clip0_125_308)">
<path d="M464.22 232.148C464.22 238.907 463.936 245.597 463.368 252.219C462.92 257.388 462.31 262.511 461.536 267.587C460.714 272.962 459.707 278.272 458.514 283.517V283.523C457.734 286.975 456.878 290.399 455.945 293.794C453.238 303.666 449.872 313.344 445.869 322.765C444.998 324.814 444.1 326.849 443.173 328.871C439.666 336.525 435.739 343.981 431.41 351.203C419.271 371.484 404.117 389.8 386.469 405.522C384.559 407.221 382.623 408.891 380.66 410.534C338.993 445.347 286.403 464.38 232.11 464.297C103.918 464.297 0 360.362 0 232.148C0 103.935 103.918 -4.81604e-05 232.11 -4.81604e-05C284.534 -0.0827215 335.427 17.6649 376.435 50.329C378.357 51.8524 380.255 53.4102 382.129 55.0022C391.273 62.7584 399.807 71.2068 407.655 80.2725H407.661C444.215 122.416 464.303 176.357 464.22 232.148Z" fill="#F2F2F2"/>
<path d="M68.5189 272.249C46.4077 259.087 29.719 234.488 31.8856 208.845C52.1007 228.195 78.5078 239.771 106.435 241.524C117.207 242.16 129.255 241.747 137.185 249.067C142.12 253.622 144.417 260.48 144.793 267.185C145.17 273.89 143.827 280.56 142.491 287.142L142.951 288.754C117.22 288.851 90.6301 285.411 68.5189 272.249Z" fill="#16697B"/>
<path d="M32.4241 208.817C41.2835 228.188 56.0203 244.275 74.5414 254.792C78.523 257.022 82.756 258.936 87.2543 259.824C91.6456 260.656 96.1796 260.297 100.385 258.784C104.335 257.452 108.22 255.631 112.425 255.283C116.857 254.915 120.96 256.625 124.183 259.62C128.127 263.285 130.52 268.149 132.694 272.986C135.108 278.358 137.53 283.975 142.159 287.837C142.72 288.305 141.961 289.148 141.401 288.681C133.348 281.961 132.034 270.706 125.597 262.792C122.593 259.099 118.459 256.289 113.547 256.363C109.252 256.427 105.243 258.301 101.256 259.684C97.0688 261.137 92.8746 261.819 88.4545 261.18C83.9329 260.526 79.6162 258.773 75.595 256.656C66.5124 251.786 58.2518 245.518 51.1159 238.082C42.9246 229.641 36.2375 219.86 31.3439 209.163C31.0413 208.501 32.1235 208.159 32.4241 208.817H32.4241Z" fill="white"/>
<path d="M68.3791 251.757C66.1929 254.625 63.0585 256.623 59.5356 257.394C56.0127 258.164 52.3307 257.657 49.1472 255.963C48.5042 255.618 49.01 254.602 49.6539 254.947C52.6155 256.531 56.0453 257.003 59.3244 256.279C62.6034 255.554 65.5157 253.682 67.5355 250.999C67.9752 250.416 68.8162 251.178 68.3791 251.757L68.3791 251.757Z" fill="white"/>
<path d="M98.4718 259.723C97.5517 252.408 93.9087 245.708 88.2692 240.96C87.7101 240.49 88.4688 239.647 89.0272 240.116C94.8866 245.068 98.6635 252.048 99.6042 259.662C99.6934 260.388 98.5605 260.445 98.4718 259.723V259.723Z" fill="white"/>
<path d="M44.3316 229.108C45.4087 228.175 46.2371 226.988 46.7424 225.655C47.2477 224.323 47.4141 222.885 47.2266 221.472C47.1283 220.748 48.2614 220.692 48.3591 221.411C48.5589 222.974 48.3732 224.561 47.8182 226.035C47.2632 227.509 46.3557 228.824 45.1751 229.867C45.0721 229.974 44.9319 230.038 44.7832 230.046C44.6345 230.054 44.4883 230.005 44.3744 229.909C44.2632 229.808 44.1963 229.668 44.1883 229.518C44.1803 229.368 44.2318 229.221 44.3316 229.108V229.108Z" fill="white"/>
<path d="M103.457 159.164C103.532 159.614 103.606 160.065 103.689 160.52C104.718 166.572 106.238 172.53 108.232 178.336C108.379 178.787 108.535 179.243 108.695 179.689C113.649 193.625 121.147 206.521 130.808 217.72C134.657 222.173 138.838 226.327 143.317 230.145C149.502 235.418 156.628 240.643 160.593 247.451C161.015 248.156 161.393 248.888 161.724 249.64L144.881 288.068C144.799 288.136 144.725 288.208 144.643 288.277L144.041 289.842C143.796 289.661 143.546 289.468 143.301 289.287C143.159 289.183 143.02 289.07 142.878 288.966C142.784 288.894 142.691 288.821 142.602 288.761C142.571 288.737 142.54 288.713 142.517 288.693C142.428 288.633 142.352 288.568 142.272 288.512C140.872 287.438 139.477 286.353 138.087 285.256C138.079 285.252 138.079 285.252 138.074 285.24C127.505 276.853 117.544 267.511 109.317 256.953C109.07 256.636 108.813 256.314 108.574 255.979C104.892 251.2 101.607 246.127 98.7511 240.812C97.1968 237.897 95.7911 234.905 94.5393 231.848C91.3201 223.942 89.3643 215.578 88.7436 207.064C87.5087 190.092 91.7148 172.913 102.615 160.132C102.894 159.805 103.17 159.487 103.457 159.164Z" fill="#16697B"/>
<path d="M103.908 159.464C99.3205 180.266 101.403 201.984 109.86 221.534C111.697 225.712 113.925 229.789 116.982 233.207C119.987 236.516 123.823 238.959 128.092 240.283C132.048 241.598 136.246 242.485 139.813 244.738C143.573 247.113 145.819 250.949 146.59 255.282C147.533 260.583 146.516 265.907 145.34 271.079C144.034 276.821 142.587 282.765 143.957 288.636C144.123 289.347 143.01 289.563 142.844 288.853C140.46 278.638 146.185 268.861 145.81 258.665C145.635 253.908 144.025 249.174 140.059 246.276C136.59 243.741 132.262 242.823 128.245 241.527C124.028 240.165 120.268 238.185 117.124 235.013C113.907 231.768 111.516 227.769 109.58 223.657C105.259 214.299 102.436 204.321 101.215 194.086C99.7565 182.413 100.305 170.577 102.837 159.09C102.994 158.379 104.064 158.758 103.908 159.464Z" fill="white"/>
<path d="M106.766 215.4C103.294 216.373 99.5888 216.081 96.3122 214.575C93.0356 213.068 90.401 210.446 88.879 207.177C88.5733 206.514 89.5885 206.008 89.8946 206.671C91.3063 209.719 93.7606 212.161 96.8146 213.557C99.8686 214.954 103.321 215.212 106.549 214.286C107.251 214.086 107.464 215.2 106.766 215.4H106.766Z" fill="white"/>
<path d="M125.998 239.881C129.667 233.486 130.791 225.943 129.147 218.756C128.983 218.044 130.097 217.828 130.26 218.539C131.957 226.021 130.771 233.868 126.939 240.515C126.573 241.148 125.635 240.511 125.998 239.881Z" fill="white"/>
<path d="M101.199 182.835C102.621 182.738 103.997 182.29 105.203 181.53C106.408 180.77 107.407 179.722 108.108 178.481C108.465 177.844 109.403 178.481 109.048 179.115C108.267 180.483 107.164 181.638 105.833 182.481C104.503 183.323 102.986 183.827 101.416 183.949C101.269 183.972 101.119 183.939 100.995 183.856C100.872 183.773 100.784 183.646 100.751 183.501C100.723 183.353 100.755 183.2 100.838 183.076C100.922 182.951 101.052 182.865 101.199 182.835V182.835Z" fill="white"/>
<path d="M160.784 53.8052L189.194 386.425L132.375 390.698V58.0371C139.145 53.5563 148.864 52.8553 160.784 53.8052Z" fill="white"/>
<path d="M301.018 53.8052L272.608 386.425L329.427 390.698V58.0371C322.657 53.5563 312.938 52.8553 301.018 53.8052Z" fill="white"/>
<path d="M320.919 404.446H140.278C137.381 404.443 134.604 403.29 132.556 401.242C130.508 399.193 129.356 396.415 129.353 393.518V62.9187C129.356 60.0216 130.508 57.2442 132.556 55.1957C134.604 53.1472 137.381 51.9948 140.278 51.9915H320.919C323.816 51.9948 326.593 53.1472 328.641 55.1957C330.689 57.2442 331.841 60.0216 331.844 62.9187V393.518C331.841 396.416 330.689 399.193 328.641 401.242C326.593 403.29 323.816 404.443 320.919 404.446ZM140.278 55.6188C138.343 55.621 136.488 56.3908 135.119 57.7593C133.751 59.1278 132.981 60.9833 132.979 62.9187V393.518C132.981 395.454 133.751 397.309 135.119 398.678C136.488 400.046 138.343 400.816 140.278 400.819H320.919C322.854 400.816 324.709 400.046 326.078 398.678C327.446 397.309 328.215 395.454 328.218 393.518V62.9187C328.215 60.9833 327.446 59.1278 326.078 57.7593C324.709 56.3908 322.854 55.621 320.919 55.6189L140.278 55.6188Z" fill="white"/>
<path d="M330.031 107.006H131.166V110.633H330.031V107.006Z" fill="white"/>
<path d="M330.031 167.461H131.166V171.088H330.031V167.461Z" fill="white"/>
<path d="M195.7 53.8052H192.073V218.848H195.7V53.8052Z" fill="white"/>
<path d="M269.125 53.8052H265.498V218.848H269.125V53.8052Z" fill="white"/>
<path d="M352.698 414.421H114.544C110.215 414.421 106.064 412.701 103.004 409.64C99.9431 406.579 98.2236 402.427 98.2236 398.098C98.2236 393.769 99.9431 389.617 103.004 386.556C106.064 383.495 110.215 381.775 114.544 381.775H352.698C357.027 381.775 361.178 383.495 364.239 386.556C367.299 389.617 369.019 393.769 369.019 398.098C369.019 402.427 367.299 406.579 364.239 409.64C361.178 412.701 357.027 414.421 352.698 414.421Z" fill="white"/>
<path d="M330.031 210.384H132.375V222.475H330.031V210.384Z" fill="white"/>
<path d="M196.263 248.865L196.012 248.743C182.538 242.233 164.893 242.239 138.798 248.765L138.52 248.834L138.436 248.559C135.676 239.507 132.549 229.253 138.423 224.209C138.506 209.406 151.488 197.386 167.434 197.386C183.377 197.386 196.358 209.4 196.445 224.199C205.184 230.881 201.019 240.756 196.404 248.624L196.263 248.865Z" fill="#2F2E41"/>
<path d="M279.08 217.168C278.839 218.367 278.337 219.499 277.611 220.484C276.884 221.468 275.951 222.282 274.877 222.867C273.802 223.451 272.612 223.793 271.391 223.869C270.17 223.944 268.947 223.75 267.809 223.302L220.192 271.161L215.943 256.301L263.236 211.857C264.116 209.994 265.649 208.519 267.544 207.712C269.438 206.904 271.564 206.819 273.517 207.474C275.47 208.128 277.115 209.477 278.14 211.263C279.165 213.05 279.5 215.151 279.08 217.168L279.08 217.168Z" fill="#FFB6B6"/>
<path d="M161.394 263.242C161.394 263.242 157.074 273.034 167.734 279.072C178.394 285.111 215.651 276.768 221.696 275.603C227.741 274.438 250.32 240.643 250.32 240.643L247.127 224.069L217.183 250.068L161.394 263.242Z" fill="#F5821F"/>
<path d="M153.532 317.39L154.136 328.877C154.136 328.877 152.352 339.052 153.819 341.247C155.276 343.432 195.013 343.708 195.013 343.708C195.013 343.708 197.639 329.551 199.9 317.16L153.532 317.39Z" fill="#FFB6B6"/>
<path d="M267.781 469.267L276.089 467.588L273.711 434.027L261.45 436.504L267.781 469.267Z" fill="#FFB6B6"/>
<path d="M279.681 425.592L287.404 422.119L277.385 390.007L265.986 395.134L279.681 425.592Z" fill="#FFB6B6"/>
<path d="M286.408 407.499L271.866 415.734L236.003 358.095C210.827 375.059 186.207 383.183 161.389 387.518C152.998 389.013 144.443 388.255 142.832 379.714C142.757 379.314 142.696 378.913 142.652 378.509C141.661 369.179 153.265 357.22 154.74 345.804L186.498 343.897L190.414 348.919L227.142 326.336C234.528 321.794 244.242 324.25 248.84 331.822C249.082 332.222 249.308 332.632 249.516 333.052L286.408 407.499Z" fill="#2F2E41"/>
<path d="M277.508 446.273L260.869 447.82L230.699 386.106C200.781 391.253 172.556 392.901 148.143 386.676C139.877 384.597 134.825 376.061 136.858 367.61C136.953 367.215 137.063 366.824 137.188 366.437C140.109 357.521 147.757 351.213 153.783 341.406L197.798 342.075L192.882 359.04L235.638 353.506C244.237 352.393 252.09 358.618 253.178 367.41C253.236 367.874 253.273 368.34 253.291 368.808L277.508 446.273Z" fill="#2F2E41"/>
<path d="M170.717 240.091C180.588 240.091 188.589 232.088 188.589 222.215C188.589 212.343 180.588 204.34 170.717 204.34C160.846 204.34 152.845 212.343 152.845 222.215C152.845 232.088 160.846 240.091 170.717 240.091Z" fill="#FFB6B6"/>
<path d="M160.239 246.544L176.626 248.472C177.317 248.553 177.966 248.848 178.481 249.315C178.997 249.783 179.354 250.399 179.502 251.079L182.109 263.007L198.354 282.141C198.354 282.141 204.188 293.081 202 305.48C199.813 317.878 198.851 327.091 198.851 327.091C198.851 327.091 155.273 343.433 153.814 341.245C152.356 339.057 151.882 329.119 151.882 329.119L146.049 264.208C146.049 264.208 152.612 253.268 156.258 253.268C158.611 253.189 158.309 247.892 160.239 246.544Z" fill="#F5821F"/>
<path d="M199.295 331.082C201.593 331.082 203.456 328.846 203.456 326.088C203.456 323.33 201.593 321.094 199.295 321.094C196.997 321.094 195.134 323.33 195.134 326.088C195.134 328.846 196.997 331.082 199.295 331.082Z" fill="#F5821F"/>
<path d="M263.658 460.625L276.324 454.277L278.711 459.847L294.727 463.085C295.518 463.245 296.237 463.653 296.779 464.251C297.322 464.848 297.659 465.604 297.742 466.407C297.825 467.21 297.649 468.018 297.24 468.714C296.831 469.41 296.21 469.956 295.468 470.274L279.993 476.909L274.965 472.543L276.285 478.499L270.45 481L263.658 460.625Z" fill="#2F2E41"/>
<path d="M276.057 422.92L288.609 416.35L291.093 421.877L307.164 424.833C307.957 424.979 308.684 425.374 309.237 425.962C309.789 426.55 310.14 427.3 310.237 428.101C310.334 428.902 310.172 429.714 309.775 430.417C309.378 431.119 308.767 431.677 308.031 432.008L292.676 438.913L287.571 434.637L288.996 440.568L283.206 443.172L276.057 422.92Z" fill="#2F2E41"/>
<path d="M160.506 216.608C155.784 216.616 151.176 215.162 147.314 212.446L147.185 212.355V212.198C147.19 207.63 149.006 203.25 152.236 200.02C155.465 196.79 159.844 194.973 164.411 194.968H171.665C176.232 194.973 180.611 196.79 183.84 200.02C187.07 203.25 188.887 207.63 188.892 212.198C188.887 213.243 188.474 214.246 187.742 214.991C187.009 215.737 186.014 216.167 184.969 216.19L160.914 216.605C160.778 216.607 160.642 216.608 160.506 216.608Z" fill="#2F2E41"/>
<path d="M190.1 208.889C192.413 207.553 192.8 203.892 190.964 200.712C189.128 197.531 185.764 196.035 183.451 197.371C181.139 198.706 180.752 202.367 182.588 205.548C184.424 208.729 187.788 210.224 190.1 208.889Z" fill="#2F2E41"/>
<path d="M153.928 205.341C156.524 202.743 157.099 199.107 155.21 197.218C153.322 195.33 149.686 195.904 147.089 198.501C144.493 201.098 143.919 204.734 145.807 206.623C147.695 208.512 151.331 207.938 153.928 205.341Z" fill="#2F2E41"/>
<path d="M312.102 368.777H294.263C293.861 368.776 293.463 368.863 293.098 369.032C292.733 369.201 292.409 369.448 292.149 369.755C291.491 369.634 290.813 369.671 290.172 369.863C289.531 370.054 288.945 370.395 288.461 370.857C287.978 371.32 287.61 371.89 287.39 372.522C287.169 373.153 287.102 373.828 287.193 374.491C287.283 375.154 287.53 375.786 287.912 376.335C288.295 376.884 288.802 377.335 289.392 377.65C289.982 377.965 290.639 378.135 291.308 378.147C291.977 378.159 292.639 378.012 293.24 377.719L294.72 382.527C294.895 383.097 295.248 383.596 295.728 383.95C296.207 384.304 296.788 384.496 297.384 384.496H308.982C309.578 384.496 310.159 384.304 310.638 383.95C311.118 383.596 311.471 383.097 311.646 382.527L314.767 372.385C314.895 371.968 314.923 371.527 314.85 371.097C314.777 370.667 314.604 370.26 314.344 369.909C314.085 369.558 313.747 369.273 313.358 369.076C312.969 368.88 312.539 368.777 312.102 368.777ZM291.396 376.939C290.594 376.939 289.826 376.62 289.259 376.053C288.692 375.486 288.374 374.718 288.374 373.916C288.374 373.114 288.692 372.345 289.259 371.779C289.826 371.212 290.594 370.893 291.396 370.893C291.451 370.893 291.502 370.907 291.557 370.909C291.437 371.396 291.452 371.906 291.599 372.385L292.876 376.535C292.426 376.796 291.916 376.935 291.396 376.939Z" fill="#3F3D56"/>
<path d="M232.444 355.654C231.226 355.767 229.998 355.611 228.846 355.197C227.695 354.784 226.648 354.123 225.779 353.261C224.911 352.4 224.242 351.358 223.82 350.21C223.397 349.061 223.232 347.834 223.335 346.615L163.833 314.724L176.847 306.39L232.985 338.95C235.021 339.259 236.874 340.304 238.191 341.888C239.508 343.471 240.199 345.483 240.132 347.542C240.066 349.601 239.246 351.564 237.829 353.059C236.412 354.554 234.496 355.477 232.444 355.654Z" fill="#FFB6B6"/>
<path d="M154.549 256.117C154.549 256.117 143.93 254.787 141.205 266.733C138.48 278.679 157.16 311.981 160.011 317.439C162.861 322.897 201.708 334.834 201.708 334.834L216.666 327.02L183.173 305.789L154.549 256.117Z" fill="#F5821F"/>
<path d="M229.39 206.757H233.017C234.78 206.757 236.472 207.458 237.718 208.705C238.965 209.952 239.666 211.643 239.666 213.407H222.741C222.741 211.643 223.442 209.952 224.689 208.705C225.936 207.458 227.627 206.757 229.39 206.757Z" fill="white"/>
<path d="M114.388 82.682C134.231 82.682 150.318 66.593 150.318 46.7463C150.318 26.8995 134.231 10.8105 114.388 10.8105C94.5443 10.8105 78.458 26.8995 78.458 46.7463C78.458 66.593 94.5443 82.682 114.388 82.682Z" fill="#FF6584"/>
<path d="M224.396 44.8735C214.888 34.8969 203.844 25.7956 190.771 20.9862C187.129 19.6408 183.353 18.6917 179.508 18.1555C179.477 18.1512 179.448 18.1575 179.417 18.155C179.355 18.1389 179.291 18.1264 179.227 18.1177C173.85 17.4325 168.392 17.7621 163.135 19.0893C160.565 19.7345 158.058 20.6081 155.643 21.6999C153.22 22.8823 150.872 24.2132 148.612 25.6849C143.83 28.548 138.565 30.5126 133.076 31.4817C130.321 31.9778 127.531 32.2517 124.732 32.3008C122.304 32.3496 120.013 32.434 117.712 33.3115C115.255 34.2359 113.047 35.722 111.265 37.6514C109.484 39.5808 108.178 41.8999 107.451 44.4237C107.395 44.6485 107.412 44.8852 107.5 45.0998C107.587 45.3143 107.74 45.4956 107.937 45.6174C108.559 46.0632 109.166 46.569 109.82 46.9663C110.402 47.2326 111.023 47.4021 111.66 47.468C112.699 47.6875 113.74 47.9005 114.783 48.1071C118.623 48.868 122.478 49.5416 126.35 50.1279C134.185 51.3141 142.062 52.1497 149.981 52.6346C165.845 53.5957 181.764 53.1172 197.542 51.2049C206.41 50.1307 215.217 48.6071 223.93 46.6401C224.106 46.5885 224.266 46.4922 224.395 46.3605C224.523 46.2289 224.615 46.0663 224.662 45.8885C224.709 45.7108 224.709 45.5239 224.663 45.3461C224.616 45.1683 224.524 45.0055 224.396 44.8735Z" fill="#E6E6E6"/>
<path d="M116.093 68.9005C112.451 67.5551 108.675 66.6061 104.83 66.0698C104.8 66.0656 104.77 66.0718 104.74 66.0693C104.677 66.0532 104.614 66.0408 104.55 66.032C99.1721 65.3468 93.7138 65.6764 88.4577 67.0037C85.8874 67.6488 83.3799 68.5225 80.9652 69.6142C78.5419 70.7966 76.1939 72.1275 73.9346 73.5993C69.1524 76.4623 63.8872 78.4269 58.3986 79.3961C55.6436 79.8922 52.8533 80.1661 50.0544 80.2152C47.6259 80.2639 45.3356 80.3483 43.0347 81.2258C40.5769 82.1502 38.3691 83.6364 36.5875 85.5657C34.8059 87.4951 33.4999 89.8142 32.7736 92.338C32.7176 92.5628 32.7345 92.7995 32.8218 93.0141C32.9091 93.2286 33.0623 93.4098 33.2593 93.5316C33.8817 93.9775 34.4884 94.4833 35.1424 94.8805C35.7241 95.1469 36.3454 95.3164 36.9818 95.3823C38.0215 95.6017 39.0625 95.8148 40.1048 96.0213C43.9448 96.7823 47.8007 97.4559 51.6726 98.0421C59.5071 99.2283 67.384 100.064 75.3032 100.549C91.1677 101.51 107.087 101.031 122.865 99.1192C131.732 98.045 140.539 96.5214 149.252 94.5544C149.429 94.5028 149.589 94.4065 149.717 94.2748C149.845 94.1431 149.937 93.9805 149.984 93.8028C150.031 93.6251 150.031 93.4382 149.985 93.2604C149.938 93.0826 149.847 92.9198 149.719 92.7878C140.21 82.8112 129.166 73.71 116.093 68.9005Z" fill="#E6E6E6"/>
<path d="M375.198 336.796L347.567 300.492L325.766 312.821L371.965 367.691L375.198 336.796Z" fill="#3F3D56"/>
<path d="M438.845 277.78C439.458 292.994 441.815 308.088 445.868 322.765C444.998 324.814 444.099 326.849 443.173 328.871C439.665 336.525 435.739 343.981 431.41 351.203C419.27 371.484 404.117 389.799 386.469 405.522C384.559 407.221 382.622 408.891 380.66 410.534C369.472 395.105 363.433 378.081 361.046 360.561C360.743 358.337 360.495 356.088 360.308 353.851V353.839C359.85 348.402 359.702 342.945 359.867 337.492C359.873 337.056 359.885 336.615 359.903 336.174C360.115 330.346 360.641 324.506 361.432 318.72V318.714C361.523 318.049 361.614 317.384 361.716 316.719C362.007 314.724 362.333 312.729 362.69 310.746C364.765 299.31 367.662 288.038 371.358 277.018V277.012C371.46 276.692 371.563 276.377 371.678 276.063C372.077 274.866 372.482 273.681 372.899 272.496C372.925 272.403 372.957 272.312 372.996 272.224C373.534 270.676 374.084 269.141 374.646 267.617C374.797 267.194 374.954 266.771 375.117 266.348C375.752 264.649 376.399 262.962 377.058 261.3C377.263 260.768 377.475 260.236 377.686 259.71C377.849 259.305 378.007 258.9 378.176 258.501V258.495C379.137 256.119 380.11 253.789 381.095 251.506C383.858 245.086 386.699 239.046 389.467 233.478L389.473 233.472C400.964 210.421 411.409 195.452 411.409 195.452L450.632 208.148C445.953 216.448 442.332 228.69 440.35 243.133C438.822 254.612 438.319 266.205 438.845 277.774L438.845 277.78Z" fill="#3F3D56"/>
<path d="M373.655 274.086C373.425 273.548 373.165 273.022 372.899 272.496C371.52 269.826 369.745 267.38 367.634 265.242C367.32 264.921 366.994 264.601 366.655 264.298C363.014 260.944 358.587 258.562 353.782 257.372C348.977 256.183 343.95 256.223 339.165 257.491L339.14 257.503L338.959 257.552L339.001 257.757C339.183 258.715 339.446 259.655 339.787 260.568C339.878 260.816 339.981 261.052 340.083 261.288C340.126 261.397 340.18 261.493 340.228 261.602C340.228 261.602 340.222 261.608 340.234 261.608C340.234 261.614 340.241 261.62 340.241 261.626C340.355 261.85 340.464 262.08 340.585 262.297C340.337 262.062 340.101 261.82 339.872 261.572C339.648 261.342 339.443 261.1 339.237 260.859C338.533 260.037 337.896 259.159 337.333 258.235L337.236 258.072L337.067 258.138C334.786 258.929 332.61 259.994 330.587 261.312L330.37 261.457C328.825 262.471 327.085 263.149 325.262 263.447C323.438 263.745 321.573 263.656 319.786 263.186C316.969 262.46 314.032 262.327 311.161 262.796C308.29 263.266 305.548 264.327 303.109 265.913C301.493 266.966 300.033 268.24 298.769 269.697C298.66 269.824 298.551 269.957 298.443 270.084C298.213 270.362 297.995 270.646 297.784 270.936C295.511 273.974 294.117 277.577 293.752 281.353L293.74 281.492L293.855 281.571C295.9 282.973 298.213 283.936 300.649 284.4C299.119 284.614 297.569 284.652 296.031 284.515H296.025C295.327 284.457 294.633 284.36 293.945 284.225L293.818 284.2H293.812L293.655 284.17L293.679 284.46C293.86 288.154 295.022 291.733 297.046 294.828L297.107 294.913C297.129 294.944 297.149 294.976 297.167 295.01C298.025 296.322 298.738 297.722 299.295 299.187C300.708 302.828 301.019 306.803 300.189 310.619C299.251 314.701 299.563 318.97 301.085 322.872C302.607 326.773 305.269 330.126 308.724 332.492C311.759 334.58 315.296 335.822 318.97 336.089C319.471 336.131 319.979 336.156 320.487 336.156C323.394 336.165 326.27 335.565 328.931 334.396L329.028 334.36L329.052 334.251C329.564 332.599 330.283 331.019 331.192 329.548C330.894 330.707 330.744 331.9 330.745 333.097V333.496L331.089 333.296C331.385 333.121 331.687 332.933 331.959 332.758C333.592 331.692 335.071 330.406 336.354 328.937C336.856 328.357 337.363 327.795 337.895 327.232L337.901 327.226C338.935 326.126 340.029 325.05 341.165 324.022C343.583 321.851 346.17 319.875 348.902 318.116C351.633 316.362 354.487 314.811 357.443 313.473H357.449C357.782 313.316 358.12 313.164 358.453 313.019C359.925 312.378 361.342 311.618 362.69 310.746C362.738 310.716 362.781 310.692 362.823 310.662C368.666 306.835 372.962 301.059 374.946 294.361C376.929 287.663 376.472 280.478 373.655 274.086L373.655 274.086Z" fill="#F5821F"/>
<path opacity="0.15" d="M301.185 319.203C301.02 319.938 300.895 320.681 300.811 321.43C299.686 317.873 299.522 314.082 300.338 310.441C300.464 309.884 300.558 309.321 300.632 308.754C301.749 312.125 301.94 315.733 301.185 319.203Z" fill="black"/>
<path opacity="0.15" d="M301.643 292.979C299.853 293.227 298.037 293.236 296.244 293.005C295.775 292.119 295.369 291.201 295.031 290.257C297.027 291.604 299.277 292.53 301.643 292.979Z" fill="black"/>
<path opacity="0.15" d="M296.1 284.32C295.439 286.011 295 287.78 294.794 289.583C294.242 287.866 293.917 286.084 293.825 284.282L293.811 283.992L294.096 284.047C294.759 284.172 295.428 284.263 296.1 284.32Z" fill="black"/>
<path opacity="0.15" d="M303.265 265.733C305.701 264.145 308.441 263.082 311.311 262.612C314.181 262.142 317.117 262.275 319.932 263.003C321.719 263.476 323.586 263.566 325.411 263.269C327.236 262.971 328.977 262.293 330.522 261.277L330.74 261.133C332.761 259.812 334.936 258.744 337.216 257.951L337.39 257.891L337.486 258.049C338.387 259.54 339.48 260.906 340.735 262.114C339.973 260.693 339.439 259.161 339.153 257.574L339.112 257.365L339.318 257.31C343.806 256.122 348.511 256.012 353.049 256.989C357.588 257.966 361.831 260.003 365.433 262.932C369.035 265.861 371.893 269.601 373.774 273.846C375.656 278.09 376.508 282.72 376.26 287.356C375.308 283.576 373.615 280.023 371.28 276.902C368.945 273.781 366.014 271.154 362.657 269.175C359.299 267.195 355.583 265.901 351.722 265.369C347.861 264.836 343.933 265.075 340.165 266.072L339.959 266.126L340 266.336C340.286 267.923 340.82 269.455 341.582 270.876C340.327 269.668 339.234 268.301 338.333 266.81L338.237 266.653L338.063 266.713C335.783 267.505 333.608 268.574 331.587 269.895L331.369 270.038C329.824 271.054 328.083 271.733 326.258 272.03C324.433 272.328 322.567 272.237 320.779 271.765C316.1 270.55 311.144 270.997 306.757 273.028C302.37 275.06 298.824 278.55 296.722 282.904C295.787 282.455 294.88 281.948 294.006 281.387L293.888 281.312L293.902 281.172C294.202 278.061 295.2 275.057 296.821 272.384C298.442 269.711 300.645 267.438 303.265 265.733Z" fill="black"/>
<path d="M527.978 111.262L527.404 110.881L526.987 111.425C523.759 115.49 521.191 120.037 519.377 124.901C519.627 119.298 520.607 113.752 522.29 108.402L522.472 107.84L521.952 107.544C515.189 103.714 507.982 100.725 500.494 98.6449L499.678 98.4272C493.938 96.8521 488.595 94.0847 483.997 90.3055C479.399 86.5264 475.649 81.8202 472.991 76.494C466.816 64.2703 457.06 54.221 445.025 47.687C432.991 41.153 419.25 38.4451 405.637 39.9246H405.631C405.486 39.9367 405.335 39.9549 405.19 39.973C404.942 39.9972 404.7 40.0274 404.458 40.0576C403.963 40.1241 403.479 40.1907 402.995 40.2632C402.584 40.3237 402.167 40.3902 401.756 40.4627C401.539 40.4929 401.327 40.5292 401.116 40.5715C400.904 40.6078 400.686 40.6441 400.475 40.6864H400.469C396.41 41.4542 392.432 42.5977 388.585 44.1021H388.579V44.1081L387.606 44.489C386.603 44.9001 385.607 45.3354 384.62 45.7948C384.396 45.8976 384.179 46.0064 383.955 46.1092C383.895 46.1394 383.828 46.1696 383.768 46.2059C383.133 46.5082 382.505 46.8226 381.882 47.1551C381.791 47.1974 381.701 47.2458 381.61 47.2941L381.03 47.6024C379.754 48.2916 378.501 49.0231 377.27 49.797C377.167 49.8574 377.07 49.9179 376.968 49.9844C376.859 50.0569 376.744 50.1295 376.635 50.202C376.569 50.2383 376.502 50.2867 376.436 50.329C376.248 50.4438 376.067 50.5647 375.886 50.6917C375.523 50.9275 375.16 51.1693 374.804 51.4172C374.435 51.665 374.072 51.925 373.71 52.1849L373.347 52.4449L373.414 52.8923C373.474 53.261 373.528 53.6298 373.595 53.9926C373.655 54.3553 373.716 54.712 373.782 55.0687C373.885 55.6672 374 56.2596 374.115 56.834C374.193 57.2148 374.266 57.5897 374.35 57.9584C374.429 58.3393 374.514 58.7202 374.604 59.101C374.78 59.887 374.967 60.6487 375.166 61.3983C375.263 61.7732 375.366 62.148 375.475 62.5168C375.535 62.7404 375.596 62.9641 375.662 63.1818C375.71 63.3329 375.759 63.484 375.807 63.6352C375.819 63.6835 375.831 63.7379 375.85 63.7924C375.863 63.8436 375.879 63.894 375.898 63.9435C375.964 64.1672 376.031 64.3849 376.097 64.5964C376.134 64.7113 376.17 64.8261 376.212 64.935C376.297 65.1949 376.387 65.4609 376.478 65.7148C376.575 66.005 376.678 66.2952 376.78 66.5793C376.805 66.6519 376.829 66.7184 376.853 66.7909C376.871 66.8454 376.889 66.8998 376.913 66.9542C376.938 67.0146 376.962 67.0811 376.986 67.1416C377.089 67.4136 377.191 67.6917 377.3 67.9638C377.336 68.0605 377.373 68.1633 377.415 68.26C378.395 70.7229 379.599 73.0906 381.012 75.3333C379.446 73.9912 377.939 72.5685 376.49 71.0651C374.254 68.7407 372.193 66.2532 370.325 63.6231C370.174 63.4175 370.023 63.2059 369.884 62.9944C369.599 62.5893 369.321 62.1843 369.049 61.7732C368.759 61.35 368.481 60.9086 368.209 60.4734C368.028 60.1832 367.847 59.8869 367.671 59.5968C367.496 59.3187 367.333 59.0466 367.176 58.7685L366.704 57.9584H366.698V57.9645L366.033 58.6174C365.767 58.8774 365.501 59.1373 365.241 59.3972C357.117 67.5727 351.233 77.7012 348.153 88.8087L348.063 89.1412L347.972 89.4858C347.797 90.1025 347.622 90.701 347.434 91.3116V91.3176C347.253 91.9222 347.059 92.5267 346.854 93.1192C346.667 93.6814 346.473 94.2376 346.268 94.7938C346.201 94.9812 346.129 95.1686 346.05 95.356C345.923 95.7188 345.784 96.0755 345.645 96.4382C345.578 96.6014 345.512 96.7707 345.446 96.9339C345.282 97.3329 345.119 97.7319 344.956 98.1249C344.932 98.1853 344.902 98.2518 344.871 98.3123C344.823 98.4332 344.769 98.5541 344.72 98.669C344.593 98.9592 344.46 99.2554 344.333 99.5456C344.243 99.733 344.158 99.9265 344.073 100.114C344.037 100.199 343.995 100.283 343.959 100.368C343.735 100.851 343.505 101.329 343.263 101.801C342.991 102.357 342.713 102.913 342.417 103.457C342.157 103.965 341.885 104.461 341.601 104.956C341.112 105.833 340.598 106.704 340.066 107.55C339.86 107.876 339.655 108.203 339.443 108.529C339.395 108.608 339.347 108.686 339.298 108.759C339.123 109.043 338.942 109.315 338.754 109.593C338.627 109.781 338.5 109.968 338.373 110.149C338.162 110.476 337.938 110.79 337.709 111.099C337.648 111.195 337.582 111.286 337.515 111.377C337.177 111.848 336.838 112.308 336.494 112.767C336.482 112.773 336.481 112.779 336.475 112.785C336.463 112.785 336.463 112.791 336.457 112.797C336.306 112.997 336.155 113.196 335.998 113.39C335.792 113.674 335.569 113.952 335.345 114.224C334.982 114.684 334.602 115.149 334.215 115.603C334.203 115.615 334.197 115.627 334.185 115.633C332.182 117.986 330.012 120.193 327.693 122.234C327.65 122.271 327.62 122.307 327.578 122.337C327.252 122.621 326.925 122.906 326.587 123.184C326.448 123.299 326.309 123.413 326.17 123.528C325.94 123.722 325.704 123.915 325.474 124.09C325.447 124.118 325.417 124.143 325.384 124.163C325.178 124.332 324.979 124.489 324.773 124.647C324.525 124.846 324.278 125.034 324.024 125.221C322.827 126.128 321.598 126.984 320.337 127.79C320.149 127.917 319.95 128.044 319.756 128.165C319.641 128.238 319.527 128.31 319.418 128.371C318.958 128.655 318.499 128.933 318.04 129.199C317.58 129.471 317.109 129.731 316.643 129.985C315.646 130.529 314.661 131.097 313.7 131.69C313.216 131.992 312.733 132.294 312.255 132.603C310.357 133.836 308.53 135.156 306.773 136.562C305.016 137.97 303.331 139.465 301.725 141.042C301.526 141.236 301.327 141.435 301.127 141.641C300.728 142.034 300.341 142.433 299.973 142.832C299.38 143.442 298.812 144.071 298.25 144.706C295.286 148.07 292.662 151.719 290.416 155.6C289.289 157.538 288.264 159.533 287.346 161.579C286.65 163.108 286.016 164.674 285.441 166.258C285.061 167.316 284.704 168.384 284.372 169.462C284.208 170 284.051 170.544 283.9 171.088C283.386 172.932 282.957 174.794 282.607 176.662C282.323 178.162 282.093 179.663 281.918 181.166C281.827 181.922 281.754 182.678 281.688 183.427C281.532 185.27 281.453 187.114 281.449 188.96C281.439 194.499 282.112 200.017 283.453 205.391C283.749 206.576 284.077 207.755 284.438 208.927C284.619 209.514 284.813 210.094 285.006 210.674C285.496 212.125 286.038 213.562 286.632 214.985C286.989 215.837 287.364 216.684 287.757 217.524C290.254 222.866 293.44 227.858 297.234 232.372C297.857 233.115 298.5 233.847 299.163 234.566C299.169 234.566 299.163 234.572 299.163 234.572C300.807 236.367 302.549 238.07 304.379 239.675H304.385C305.116 240.322 305.86 240.948 306.615 241.555C306.622 241.549 306.622 241.555 306.622 241.555C307.383 242.172 308.151 242.764 308.937 243.338C309.329 243.623 309.728 243.907 310.133 244.191C310.925 244.753 311.733 245.295 312.557 245.817H312.563C313.385 246.349 314.22 246.857 315.066 247.341C316.764 248.314 318.505 249.227 320.294 250.055L320.596 250.194L320.905 250.055C323.774 248.764 326.731 247.679 329.754 246.809C330.419 246.615 331.09 246.44 331.755 246.271C333.435 245.853 335.128 245.503 336.832 245.219C335.171 246.052 333.568 246.995 332.033 248.042C330.842 248.846 329.669 249.723 328.491 250.69C328.098 251.01 327.705 251.343 327.312 251.681L326.333 252.528L327.56 252.933C328.007 253.078 328.454 253.223 328.902 253.356C329.512 253.549 330.117 253.725 330.709 253.888C332.002 254.251 333.304 254.571 334.614 254.849C334.934 254.916 335.248 254.982 335.569 255.049C336.191 255.17 336.82 255.291 337.449 255.399C337.474 255.406 337.501 255.41 337.527 255.411C338.18 255.52 338.839 255.623 339.492 255.714C340.707 255.889 341.922 256.028 343.137 256.131C343.27 256.149 343.403 256.155 343.542 256.161C343.838 256.185 344.128 256.209 344.424 256.228C345.077 256.27 345.736 256.3 346.395 256.324C346.443 256.324 346.485 256.33 346.534 256.33C346.866 256.342 347.198 256.355 347.531 256.361C347.531 256.361 347.531 256.367 347.537 256.361C347.869 256.367 348.202 256.373 348.534 256.373H350.372C350.716 256.373 351.061 256.379 351.412 256.379C351.895 256.379 352.385 256.385 352.868 256.391C352.995 256.391 353.128 256.397 353.261 256.397C354.035 256.409 354.809 256.427 355.582 256.445C355.631 256.445 355.679 256.451 355.727 256.451C356.501 256.475 357.275 256.5 358.048 256.536C358.218 256.542 358.387 256.548 358.562 256.56C359.306 256.59 360.049 256.627 360.793 256.669C361.004 256.681 361.222 256.699 361.439 256.711C362.002 256.741 362.57 256.778 363.132 256.82C363.464 256.838 363.791 256.862 364.123 256.893C365.465 256.995 366.801 257.11 368.143 257.243C368.59 257.279 369.037 257.328 369.485 257.376C370.681 257.503 371.882 257.642 373.087 257.793C373.625 257.854 374.163 257.926 374.701 257.999C374.762 258.005 374.822 258.011 374.882 258.023C375.547 258.114 376.206 258.204 376.871 258.301C377.306 258.362 377.742 258.428 378.177 258.495C378.624 258.561 379.071 258.628 379.519 258.706C379.76 258.742 380.002 258.785 380.25 258.827C380.83 258.918 381.417 259.015 382.003 259.123C382.056 259.128 382.108 259.137 382.16 259.148C383.405 259.365 384.656 259.595 385.902 259.843C386.633 259.982 387.358 260.127 388.084 260.278C388.652 260.393 389.22 260.514 389.788 260.635C389.885 260.653 389.982 260.677 390.078 260.701C390.1 260.708 390.122 260.712 390.145 260.713C391.003 260.901 391.868 261.094 392.726 261.3C395.706 261.989 398.682 262.755 401.654 263.597C402.337 263.784 403.02 263.984 403.703 264.183C403.993 264.268 404.277 264.353 404.561 264.437C405.153 264.613 405.74 264.788 406.332 264.975C406.852 265.133 407.378 265.296 407.898 265.465C408.224 265.568 408.55 265.671 408.877 265.779C409.385 265.937 409.892 266.1 410.394 266.275C410.823 266.408 411.246 266.547 411.669 266.698C412.274 266.898 412.884 267.103 413.489 267.321C413.664 267.382 413.845 267.442 414.021 267.508C414.758 267.762 415.496 268.022 416.233 268.294C416.952 268.554 417.672 268.82 418.385 269.086C418.881 269.274 419.376 269.455 419.866 269.649C420.416 269.86 420.966 270.072 421.51 270.289C422.296 270.598 423.088 270.912 423.873 271.233C424.599 271.523 425.318 271.819 426.043 272.127C426.176 272.182 426.315 272.236 426.448 272.297C427.077 272.557 427.706 272.829 428.328 273.101C428.733 273.27 429.132 273.445 429.531 273.621C431.272 274.382 433.011 275.17 434.747 275.984H434.754C435.842 276.498 436.948 276.988 438.06 277.453C438.32 277.562 438.58 277.671 438.846 277.774C439.287 277.961 439.734 278.137 440.182 278.318C440.472 278.433 440.762 278.548 441.058 278.656C441.487 278.826 441.922 278.989 442.358 279.146C442.817 279.315 443.27 279.485 443.736 279.642C443.899 279.702 444.062 279.757 444.231 279.817C444.769 279.999 445.307 280.18 445.851 280.355C445.906 280.373 445.96 280.392 446.021 280.41C446.589 280.591 447.157 280.772 447.731 280.942C447.777 280.959 447.823 280.973 447.87 280.984C448.487 281.171 449.115 281.353 449.738 281.528C450.657 281.782 451.582 282.024 452.506 282.248C452.676 282.29 452.845 282.332 453.014 282.368C453.51 282.489 453.999 282.604 454.495 282.713C455.021 282.834 455.553 282.943 456.079 283.052C456.611 283.16 457.143 283.269 457.668 283.366C457.952 283.42 458.237 283.475 458.515 283.523L459.258 283.65C459.772 283.741 460.286 283.819 460.805 283.904C460.82 283.903 460.834 283.905 460.848 283.91C461.434 284.001 462.014 284.085 462.601 284.158C463.163 284.236 463.725 284.303 464.287 284.37C464.402 284.382 464.523 284.394 464.644 284.406C465.109 284.46 465.575 284.515 466.04 284.557C466.173 284.569 466.306 284.581 466.439 284.593C466.898 284.636 467.358 284.678 467.817 284.708C467.909 284.72 468.002 284.726 468.095 284.726C468.506 284.762 468.917 284.793 469.328 284.811C469.618 284.835 469.902 284.847 470.193 284.865C470.344 284.871 470.489 284.877 470.64 284.883C471.039 284.908 471.438 284.92 471.843 284.932C472.332 284.95 472.822 284.962 473.306 284.974C473.892 284.986 474.484 284.992 475.071 284.992H475.083C475.657 284.992 476.237 284.986 476.811 284.974H477.029L477.664 284.956C477.99 284.95 478.317 284.938 478.637 284.926C479.253 284.902 479.864 284.871 480.474 284.835C480.716 284.823 480.964 284.805 481.206 284.793C481.315 284.787 481.429 284.775 481.538 284.769C481.919 284.744 482.294 284.72 482.675 284.69C483.068 284.66 483.467 284.623 483.859 284.581C484.367 284.533 484.875 284.478 485.383 284.424C485.782 284.382 486.181 284.333 486.573 284.285C486.626 284.28 486.679 284.272 486.731 284.261C487.111 284.218 487.492 284.17 487.867 284.116C488.314 284.055 488.755 283.989 489.197 283.922C489.245 283.916 489.287 283.91 489.336 283.904C490.097 283.783 490.865 283.662 491.633 283.523C492.437 283.378 493.241 283.221 494.038 283.058C494.335 282.997 494.625 282.931 494.921 282.87C495.084 282.834 495.253 282.804 495.411 282.767C495.658 282.713 495.9 282.659 496.142 282.598C496.184 282.592 496.233 282.58 496.275 282.574C496.613 282.501 496.946 282.417 497.284 282.332C497.961 282.169 498.626 282 499.291 281.818C499.587 281.746 499.883 281.667 500.168 281.589C500.252 281.564 500.337 281.54 500.415 281.516C501.642 281.171 502.859 280.807 504.066 280.422C504.598 280.253 505.124 280.077 505.65 279.89C506.78 279.503 507.901 279.096 509.011 278.669C509.307 278.56 509.603 278.439 509.899 278.324C510.335 278.149 510.77 277.973 511.199 277.798C511.586 277.635 511.973 277.472 512.365 277.302C512.559 277.224 512.752 277.139 512.946 277.054C513.526 276.801 514.106 276.541 514.681 276.281C515.067 276.099 515.448 275.924 515.829 275.743C516.433 275.452 517.032 275.156 517.63 274.86C517.781 274.781 517.926 274.703 518.072 274.63C518.452 274.437 518.833 274.237 519.22 274.044C519.83 273.717 520.441 273.391 521.045 273.052C521.251 272.943 521.45 272.829 521.656 272.714C522.321 272.339 522.98 271.958 523.632 271.571C525.077 270.707 526.502 269.804 527.906 268.863C528.256 268.633 528.607 268.391 528.952 268.155C529.604 267.708 530.245 267.249 530.886 266.789C530.952 266.741 531.013 266.692 531.079 266.65C531.4 266.414 531.72 266.179 532.04 265.937C532.705 265.435 533.364 264.927 534.023 264.407C534.035 264.401 534.053 264.383 534.071 264.371C534.368 264.135 534.664 263.899 534.954 263.664C535.854 262.932 536.743 262.189 537.613 261.421C538.043 261.052 538.466 260.671 538.883 260.29C539.197 260.006 539.511 259.722 539.82 259.432C540.442 258.845 541.053 258.265 541.657 257.672C541.959 257.382 542.256 257.08 542.558 256.778C542.854 256.475 543.156 256.173 543.452 255.865C543.555 255.762 543.658 255.653 543.761 255.544C544.063 255.224 544.365 254.898 544.667 254.577C544.927 254.299 545.181 254.009 545.441 253.719C545.876 253.235 546.318 252.751 546.747 252.262C546.769 252.234 546.794 252.208 546.819 252.183C546.843 252.153 546.868 252.129 546.886 252.105H546.88C555.666 241.943 562.194 230.031 566.032 217.157C569.87 204.283 570.931 190.74 569.144 177.426C567.357 164.111 562.763 151.327 555.667 139.921C548.57 128.515 539.133 118.747 527.978 111.262L527.978 111.262Z" fill="#F5821F"/>
<g opacity="0.15">
<path opacity="0.15" d="M405.632 39.9199C406.837 44.2488 408.65 48.3848 411.016 52.2044C407.054 48.8005 403.515 44.9342 400.473 40.6881C402.181 40.3648 403.901 40.1088 405.632 39.9199Z" fill="black"/>
<path opacity="0.15" d="M346.65 106.866C342.177 109.308 337.994 112.249 334.182 115.632C340.618 108.02 345.323 99.0981 347.968 89.4859C348.001 89.3704 348.033 89.2542 348.064 89.1385L348.154 88.8114C351.333 77.3391 357.502 66.9173 366.03 58.6118L366.7 57.9585L367.173 58.7659C369.787 63.2116 372.916 67.3342 376.494 71.0483C371.011 86.5212 360.343 99.3989 346.65 106.866Z" fill="black"/>
<path opacity="0.15" d="M378.16 65.6871L378.07 66.0143C378.039 66.1299 378.007 66.2462 377.975 66.3617C377.798 66.9978 377.61 67.6292 377.417 68.2579C375.505 63.3043 374.162 58.1494 373.414 52.8924L373.344 52.4463L373.71 52.1842C378.31 48.8786 383.306 46.1624 388.581 44.0993C383.845 50.6142 380.315 57.9259 378.16 65.6871Z" fill="black"/>
<path opacity="0.15" d="M316.645 129.99C320.604 127.823 324.31 125.221 327.694 122.234C320.935 130.104 316.09 139.433 313.539 149.489C310.988 159.546 310.799 170.056 312.989 180.198C315.178 190.339 319.686 199.835 326.159 207.943C332.631 216.05 340.893 222.548 350.297 226.928L350.603 227.069L350.908 226.932C355.987 224.637 361.342 223.01 366.84 222.093C363.408 223.841 360.21 226.013 357.319 228.558L356.341 229.403L357.568 229.808C358.627 230.159 359.686 230.481 360.716 230.767C366.765 232.452 373.019 233.289 379.298 233.253C407.83 233.071 436.582 239.668 464.757 252.861C469.589 255.121 474.601 256.973 479.74 258.4C502.138 264.637 526.049 262.394 546.897 252.099C535.143 265.694 519.775 275.676 502.576 280.884C485.377 286.093 467.054 286.315 449.734 281.524C444.595 280.098 439.583 278.245 434.751 275.986C406.576 262.792 377.824 256.195 349.293 256.378C343.013 256.413 336.759 255.576 330.71 253.891C329.68 253.605 328.621 253.283 327.562 252.933L326.335 252.528L327.313 251.682C330.204 249.137 333.403 246.965 336.834 245.217C331.336 246.134 325.981 247.761 320.902 250.056L320.597 250.194L320.291 250.052C308.999 244.795 299.389 236.503 292.534 226.102C285.679 215.7 281.849 203.598 281.47 191.145C281.092 178.693 284.181 166.381 290.392 155.582C296.603 144.783 305.692 135.923 316.645 129.99L316.645 129.99Z" fill="black"/>
</g>
</g>
<defs>
<clipPath id="clip0_125_308">
<rect width="570" height="481" fill="white"/>
</clipPath>
</defs>
</svg>
