<svg width="570" height="340" viewBox="0 0 570 340" fill="none" xmlns="http://www.w3.org/2000/svg">
<g clip-path="url(#clip0_54_472)">
<path d="M436.406 336.155C429.109 330.003 424.676 320.284 425.839 310.823C427.001 301.362 434.201 292.664 443.54 290.655C452.88 288.646 463.526 294.207 466.362 303.31C467.924 285.761 469.723 267.477 479.074 252.533C487.541 239.001 502.207 229.318 518.102 227.586C533.996 225.854 550.731 232.396 560.644 244.913C570.557 257.429 572.984 275.626 566.041 289.996C560.927 300.582 551.504 308.46 541.632 314.869C509.73 335.406 471.468 343.757 433.886 338.387L436.406 336.155Z" fill="#16697B"/>
<path d="M544.925 232.759C531.81 243.417 519.779 255.337 509.004 268.346C492.143 288.637 478.498 311.386 468.546 335.801C467.818 337.582 470.717 338.358 471.437 336.596C487.72 296.916 513.716 261.942 547.045 234.874C548.542 233.658 546.409 231.553 544.925 232.759Z" fill="white"/>
<path d="M183.492 334.484C193.515 326.033 199.604 312.685 198.007 299.69C196.41 286.695 186.521 274.748 173.694 271.989C160.866 269.229 146.244 276.868 142.348 289.37C140.203 265.267 137.732 240.154 124.888 219.628C113.258 201.042 93.1146 187.743 71.2835 185.364C49.4525 182.985 26.4672 191.97 12.8519 209.162C-0.763339 226.354 -4.09697 251.346 5.43879 271.084C12.4634 285.624 25.4054 296.444 38.9652 305.247C82.226 333.333 135.891 345.046 186.954 337.548" fill="#16697B"/>
<path d="M34.4397 192.469C52.4531 207.107 68.9784 223.479 83.7767 241.348C98.5774 259.198 111.608 278.439 122.685 298.799C128.876 310.221 134.438 321.971 139.346 333.997C140.347 336.444 136.365 337.509 135.376 335.089C126.683 313.887 115.928 293.586 103.266 274.476C90.6656 255.436 76.2436 237.661 60.2026 221.399C51.1298 212.206 41.5572 203.518 31.5281 195.374C29.4725 193.703 32.401 190.812 34.4397 192.469L34.4397 192.469Z" fill="white"/>
<path d="M409.156 339.256H170.018V94.4556C170.018 42.3725 212.487 0 264.69 0H314.483C366.686 0 409.156 42.3725 409.156 94.4556V339.256Z" fill="#F2F2F2"/>
<path d="M359.362 339.256H170.017V94.4556C169.965 74.4986 176.299 55.0459 188.097 38.9299C188.532 38.3385 188.966 37.7547 189.413 37.1773C195.12 29.7098 201.911 23.1333 209.562 17.6648C209.994 17.351 210.428 17.0427 210.869 16.7344C217.271 12.3139 224.197 8.70022 231.488 5.97562C231.921 5.81188 232.362 5.64782 232.803 5.49046C239.398 3.14252 246.233 1.53419 253.184 0.695176C253.615 0.636443 254.058 0.590484 254.5 0.544525C261.274 -0.17809 268.106 -0.17809 274.88 0.544525C275.321 0.590484 275.763 0.636437 276.199 0.695804C283.149 1.53488 289.983 3.14301 296.575 5.49049C297.016 5.64785 297.457 5.8119 297.892 5.97596C305.093 8.66619 311.937 12.2259 318.272 16.5758C318.712 16.8774 319.152 17.1857 319.586 17.4941C323.875 20.5485 327.903 23.9513 331.631 27.6678C334.619 30.6488 337.404 33.8264 339.967 37.1792C340.413 37.7547 340.847 38.3385 341.281 38.929C353.08 55.0452 359.414 74.4982 359.362 94.4556V339.256Z" fill="#CCCCCC"/>
<path d="M343.965 229.766C349.755 229.766 354.448 225.083 354.448 219.307C354.448 213.531 349.755 208.848 343.965 208.848C338.176 208.848 333.482 213.531 333.482 219.307C333.482 225.083 338.176 229.766 343.965 229.766Z" fill="#F5821F"/>
<path d="M389.565 331.924H381.533L377.711 301.013L389.566 301.013L389.565 331.924Z" fill="#FFB8B8"/>
<path d="M375.795 329.634H391.285V339.365H366.041C366.041 338.087 366.293 336.821 366.783 335.641C367.274 334.46 367.992 333.387 368.898 332.484C369.803 331.58 370.879 330.863 372.062 330.374C373.245 329.885 374.514 329.634 375.795 329.634Z" fill="#2F2E41"/>
<path d="M429.531 331.924H421.498L417.677 301.013L429.532 301.013L429.531 331.924Z" fill="#FFB8B8"/>
<path d="M415.76 329.634H431.251V339.365H406.007C406.007 338.087 406.259 336.821 406.749 335.641C407.239 334.46 407.958 333.387 408.864 332.484C409.769 331.58 410.844 330.863 412.028 330.374C413.211 329.885 414.479 329.634 415.76 329.634Z" fill="#2F2E41"/>
<path d="M349.27 221.379C348.693 220.529 348.308 219.564 348.145 218.55C347.982 217.537 348.043 216.5 348.325 215.512C348.606 214.525 349.102 213.611 349.776 212.836C350.45 212.06 351.286 211.441 352.226 211.023L379.53 135.938L392.966 143.253L361.79 215.007C362.39 216.629 362.373 218.413 361.742 220.023C361.111 221.633 359.91 222.956 358.367 223.741C356.824 224.526 355.045 224.72 353.369 224.284C351.692 223.849 350.234 222.815 349.27 221.379Z" fill="#FFB8B8"/>
<path d="M425.427 235.488C424.535 234.977 423.765 234.277 423.173 233.438C422.581 232.599 422.18 231.64 421.999 230.629C421.819 229.618 421.862 228.581 422.127 227.589C422.392 226.597 422.871 225.674 423.532 224.887L415.073 145.46L430.363 146.157L433.879 224.284C435.131 225.479 435.9 227.091 436.04 228.813C436.18 230.536 435.683 232.25 434.641 233.631C433.599 235.012 432.086 235.964 430.388 236.306C428.69 236.648 426.925 236.357 425.427 235.488Z" fill="#FFB8B8"/>
<path d="M401.035 122.03C409.922 122.03 417.127 114.842 417.127 105.975C417.127 97.1082 409.922 89.9202 401.035 89.9202C392.148 89.9202 384.943 97.1082 384.943 105.975C384.943 114.842 392.148 122.03 401.035 122.03Z" fill="#FFB8B8"/>
<path d="M425.325 217.424H376.812L376.87 217.047C376.957 216.484 385.516 160.544 379.203 142.243C378.57 140.445 378.626 138.476 379.36 136.716C380.094 134.956 381.455 133.53 383.18 132.71H383.18C392.203 128.471 409.523 123.251 424.142 135.919C426.293 137.814 427.973 140.183 429.048 142.837C430.124 145.491 430.566 148.359 430.339 151.213L425.325 217.424Z" fill="#F5821F"/>
<path d="M386.128 168.811L364.287 164.39L374.525 140.185C375.138 137.841 376.657 135.834 378.751 134.606C380.844 133.378 383.34 133.029 385.691 133.634C388.043 134.24 390.057 135.751 391.293 137.837C392.529 139.922 392.885 142.412 392.284 144.759L386.128 168.811Z" fill="#F5821F"/>
<path d="M414.102 177.02L412.789 146.989C411.794 141.344 415.033 136.007 420.014 135.135C424.997 134.266 429.862 138.181 430.863 143.868L435.798 171.929L414.102 177.02Z" fill="#F5821F"/>
<path d="M423.71 213.828C431.516 243.49 432.368 281.202 430.262 322.338L419.779 321.03L400.779 242.59L390.296 322.338L378.503 321.684C374.98 278.522 371.55 241.469 377.193 217.097L423.71 213.828Z" fill="#2F2E41"/>
<path d="M411.638 118.383C408.636 121.573 403.061 119.86 402.67 115.502C402.64 115.163 402.642 114.823 402.677 114.485C402.879 112.554 403.997 110.801 403.729 108.763C403.668 108.256 403.479 107.772 403.179 107.358C400.786 104.162 395.171 108.788 392.913 105.894C391.529 104.12 393.156 101.327 392.094 99.3443C390.692 96.7273 386.539 98.0183 383.934 96.585C381.037 94.9904 381.21 90.5548 383.117 87.8568C385.444 84.5665 389.522 82.8107 393.55 82.5577C397.578 82.3047 401.578 83.391 405.338 84.853C409.61 86.5142 413.847 88.8101 416.476 92.5582C419.674 97.1164 419.981 103.244 418.382 108.574C417.41 111.817 414.09 115.777 411.638 118.383Z" fill="#2F2E41"/>
<path d="M550.333 339.677H66.6235C66.417 339.676 66.2192 339.594 66.0734 339.448C65.9276 339.302 65.8457 339.104 65.8457 338.898C65.8457 338.692 65.9276 338.495 66.0734 338.349C66.2192 338.203 66.417 338.12 66.6235 338.12H550.333C550.54 338.12 550.738 338.203 550.884 338.349C551.029 338.495 551.111 338.692 551.111 338.898C551.111 339.104 551.029 339.302 550.884 339.448C550.738 339.594 550.54 339.676 550.333 339.677Z" fill="#3F3D56"/>
<path d="M307.277 268.332H222.104C220.983 268.338 219.904 267.9 219.106 267.114C218.308 266.328 217.854 265.258 217.846 264.139V74.4632C217.854 73.3441 218.308 72.2741 219.106 71.4879C219.904 70.7018 220.983 70.2637 222.104 70.2697H307.277C308.398 70.2637 309.477 70.7018 310.275 71.4879C311.074 72.2741 311.527 73.3441 311.535 74.4632V264.139C311.527 265.258 311.074 266.328 310.275 267.114C309.477 267.9 308.398 268.338 307.277 268.332Z" fill="white"/>
<path d="M311.535 131.643H217.846V132.951H311.535V131.643Z" fill="#CCCCCC"/>
<path d="M311.862 206.234H218.173V207.542H311.862V206.234Z" fill="#CCCCCC"/>
<path d="M248.638 70.2698H247.328V268.986H248.638V70.2698Z" fill="#CCCCCC"/>
<path d="M281.396 70.2698H280.086V268.986H281.396V70.2698Z" fill="#CCCCCC"/>
</g>
<defs>
<clipPath id="clip0_54_472">
<rect width="570" height="340" fill="white"/>
</clipPath>
</defs>
</svg>
