<svg width="25" height="25" viewBox="0 0 25 25" fill="none" xmlns="http://www.w3.org/2000/svg">
<path d="M21.5 5H3.5C3.10218 5 2.72064 5.15804 2.43934 5.43934C2.15804 5.72064 2 6.10218 2 6.5V18.5C2 18.8978 2.15804 19.2794 2.43934 19.5607C2.72064 19.842 3.10218 20 3.5 20H21.5C21.8978 20 22.2794 19.842 22.5607 19.5607C22.842 19.2794 23 18.8978 23 18.5V6.5C23 6.10218 22.842 5.72064 22.5607 5.43934C22.2794 5.15804 21.8978 5 21.5 5ZM19.85 6.5L12.5 11.585L5.15 6.5H19.85ZM3.5 18.5V7.1825L12.0725 13.115C12.198 13.2021 12.3472 13.2488 12.5 13.2488C12.6528 13.2488 12.802 13.2021 12.9275 13.115L21.5 7.1825V18.5H3.5Z" fill="#CCCCCC"/>
</svg>
