<svg width="40" height="40" viewBox="0 0 40 40" fill="none" xmlns="http://www.w3.org/2000/svg">
<g clip-path="url(#clip0_166_102)">
<path fill-rule="evenodd" clip-rule="evenodd" d="M13.1983 28.9617L5.08333 6.66667H1.66667C1.22333 6.66667 0.8 6.49167 0.488333 6.17833C0.175 5.86667 0 5.44167 0 5C0 4.08 0.745 3.33333 1.66667 3.33333H7.41667L16.5317 28.375C17.9333 28.5433 19.1817 29.2083 20.0967 30.1883L38.86 23.36L40 26.4917L21.585 33.1933C21.6383 33.51 21.6667 33.835 21.6667 34.1667C21.6667 37.3867 19.0517 40 15.8333 40C12.6133 40 10 37.3867 10 34.1667C10 31.895 11.3017 29.925 13.1983 28.9617ZM15.8333 31.98C17.04 31.98 18.02 32.96 18.02 34.1667C18.02 35.3733 17.04 36.355 15.8333 36.355C14.625 36.355 13.645 35.3733 13.645 34.1667C13.645 32.96 14.625 31.98 15.8333 31.98ZM38.0233 21.1267L18.9933 28.0533L14.4333 15.5233L33.4633 8.59667L38.0233 21.1267ZM23.5067 15.7683L18.7067 17.515L20.9867 23.78L33.7517 19.135L31.4717 12.87L26.6383 14.6283L27.7783 17.76L24.6467 18.9017L23.5067 15.7683ZM27.96 8.82667L13.8633 13.9567L10.6517 5.13L24.7467 0L27.96 8.82667ZM22.755 4.27167L14.9233 7.12333L15.8567 9.685L23.6867 6.835L22.755 4.27167Z" fill="url(#paint0_linear_166_102)"/>
</g>
<defs>
<linearGradient id="paint0_linear_166_102" x1="20" y1="0" x2="20" y2="40" gradientUnits="userSpaceOnUse">
<stop stop-color="#F5821F"/>
<stop offset="1" stop-color="#EA6601"/>
</linearGradient>
<clipPath id="clip0_166_102">
<rect width="40" height="40" fill="white"/>
</clipPath>
</defs>
</svg>
