<svg width="40" height="40" viewBox="0 0 40 40" fill="none" xmlns="http://www.w3.org/2000/svg">
<g clip-path="url(#clip0_168_2)">
<path fill-rule="evenodd" clip-rule="evenodd" d="M3.45833 15.7983C3.90167 14.8617 4.45 13.91 5 13.075V10C5 3.53667 11.37 0 20 0C28.86 0 35 3.405 35 10V13.075C35.55 13.91 36.0983 14.8617 36.5417 15.7983C38.9983 16.6567 40 19.4933 40 22.585C40 25.7933 38.5067 30.4817 34.4717 31.2317C31.2067 37.0517 26.3433 40 20 40C13.6583 40 8.79333 37.0517 5.52833 31.2317C1.495 30.4817 0 25.7933 0 22.585C0 19.5067 0.998333 16.6583 3.45833 15.7983ZM36.5667 21.115C35.8667 21.625 34.8367 21.765 33.6933 21.455C31.13 20.705 27.8267 18.9367 20 18.9583C12.175 18.9367 8.87 20.705 6.30667 21.455C5.16167 21.765 4.13167 21.625 3.43167 21.1133C3.03167 23.79 3.99667 27.9517 6.61167 28.0017C7.225 28.0133 7.78333 28.3617 8.06333 28.9067C12.0467 36.6667 18.0333 36.6667 20 36.6667C21.9683 36.6667 27.9517 36.6667 31.9367 28.9067C32.2167 28.3617 32.775 28.0133 33.3867 28.0017C36.475 27.9417 36.6667 22.6383 36.6667 22.585C36.6667 22.045 36.6333 21.5517 36.5667 21.115ZM25 28.3333C24.9967 28.345 23.72 32.2567 20 32.2567C16.4167 32.2567 15.0033 28.345 15 28.3333H25ZM14.5833 20C13.4333 20 12.5 21.1183 12.5 22.5C12.5 23.88 13.4333 25 14.5833 25C15.7333 25 16.6667 23.88 16.6667 22.5C16.6667 21.1183 15.7333 20 14.5833 20ZM27.5 22.5C27.5 23.88 26.5667 25 25.4167 25C24.2667 25 23.3333 23.88 23.3333 22.5C23.3333 21.1183 24.2667 20 25.4167 20C26.5667 20 27.5 21.1183 27.5 22.5ZM32.5167 15.41C28.4267 13.49 24.9317 12.69 20 12.69C15.7767 12.69 11.79 13.53 7.44 15.4783C6.87833 16.3883 6.39833 17.3233 6.12333 18.015C10.9633 16.34 14.105 15.6167 20 15.6383C26.0667 15.6167 29.215 16.4 33.8767 18.015C33.5933 17.3067 33.0967 16.34 32.5167 15.41ZM15 10H25V4.71667L20 8.05L15 4.71667V10ZM24.9933 3.33333H15.0067L20 6.66667L24.9933 3.33333Z" fill="#CCCCCC"/>
</g>
<defs>
<clipPath id="clip0_168_2">
<rect width="40" height="40" fill="white"/>
</clipPath>
</defs>
</svg>
