<svg width="50" height="50" viewBox="0 0 50 50" fill="none" xmlns="http://www.w3.org/2000/svg">
<path d="M37.5 24.4141V25.5859C37.5 26.2305 36.9727 26.7578 36.3281 26.7578H26.7578V36.3281C26.7578 36.9727 26.2305 37.5 25.5859 37.5H24.4141C23.7695 37.5 23.2422 36.9727 23.2422 36.3281V26.7578H13.6719C13.0273 26.7578 12.5 26.2305 12.5 25.5859V24.4141C12.5 23.7695 13.0273 23.2422 13.6719 23.2422H23.2422V13.6719C23.2422 13.0273 23.7695 12.5 24.4141 12.5H25.5859C26.2305 12.5 26.7578 13.0273 26.7578 13.6719V23.2422H36.3281C36.9727 23.2422 37.5 23.7695 37.5 24.4141ZM49.2188 25C49.2188 38.3789 38.3789 49.2188 25 49.2188C11.6211 49.2188 0.78125 38.3789 0.78125 25C0.78125 11.6211 11.6211 0.78125 25 0.78125C38.3789 0.78125 49.2188 11.6211 49.2188 25ZM46.0938 25C46.0938 13.291 36.5918 3.90625 25 3.90625C13.291 3.90625 3.90625 13.4082 3.90625 25C3.90625 36.709 13.4082 46.0938 25 46.0938C36.709 46.0938 46.0938 36.5918 46.0938 25Z" fill="url(#paint0_linear_171_387)"/>
<defs>
<linearGradient id="paint0_linear_171_387" x1="25" y1="0.78125" x2="25" y2="49.2188" gradientUnits="userSpaceOnUse">
<stop stop-color="#F5821F"/>
<stop offset="1" stop-color="#EA6601"/>
</linearGradient>
</defs>
</svg>
