<svg width="25" height="25" viewBox="0 0 25 25" fill="none" xmlns="http://www.w3.org/2000/svg">
<path d="M20.9595 18.6426C20.499 17.5517 19.8307 16.5608 18.9918 15.7251C18.1554 14.887 17.1647 14.2188 16.0743 13.7573C16.0645 13.7524 16.0548 13.75 16.045 13.7451C17.566 12.6465 18.5548 10.8569 18.5548 8.83789C18.5548 5.49316 15.8448 2.7832 12.5001 2.7832C9.15534 2.7832 6.44538 5.49316 6.44538 8.83789C6.44538 10.8569 7.43415 12.6465 8.95514 13.7476C8.94538 13.7524 8.93561 13.7549 8.92585 13.7598C7.8321 14.2212 6.85065 14.8828 6.00836 15.7275C5.17025 16.5639 4.50203 17.5546 4.04059 18.645C3.58727 19.7125 3.34279 20.857 3.32037 22.0166C3.31972 22.0427 3.32429 22.0686 3.33382 22.0928C3.34334 22.1171 3.35762 22.1392 3.37582 22.1579C3.39403 22.1765 3.41578 22.1914 3.4398 22.2015C3.46382 22.2116 3.48962 22.2168 3.51569 22.2168H4.98053C5.08795 22.2168 5.1734 22.1313 5.17584 22.0264C5.22467 20.1416 5.98151 18.3765 7.3194 17.0386C8.70368 15.6543 10.5421 14.8926 12.5001 14.8926C14.4581 14.8926 16.2965 15.6543 17.6807 17.0386C19.0186 18.3765 19.7755 20.1416 19.8243 22.0264C19.8267 22.1338 19.9122 22.2168 20.0196 22.2168H21.4845C21.5105 22.2168 21.5363 22.2116 21.5603 22.2015C21.5844 22.1914 21.6061 22.1765 21.6243 22.1579C21.6425 22.1392 21.6568 22.1171 21.6663 22.0928C21.6758 22.0686 21.6804 22.0427 21.6798 22.0166C21.6553 20.8496 21.4137 19.7144 20.9595 18.6426ZM12.5001 13.0371C11.3795 13.0371 10.3248 12.6001 9.53132 11.8066C8.73786 11.0132 8.30085 9.9585 8.30085 8.83789C8.30085 7.71729 8.73786 6.6626 9.53132 5.86914C10.3248 5.07568 11.3795 4.63867 12.5001 4.63867C13.6207 4.63867 14.6754 5.07568 15.4688 5.86914C16.2623 6.6626 16.6993 7.71729 16.6993 8.83789C16.6993 9.9585 16.2623 11.0132 15.4688 11.8066C14.6754 12.6001 13.6207 13.0371 12.5001 13.0371Z" fill="#CCCCCC"/>
</svg>
