<svg width="600" height="344" viewBox="0 0 600 344" fill="none" xmlns="http://www.w3.org/2000/svg">
<g clip-path="url(#clip0_95_612)">
<path opacity="0.1" d="M600 225.447C600.033 242.776 595.294 259.78 586.301 274.602C586.301 292.729 577.836 309.16 564.105 321.135C560.669 324.133 556.968 326.816 553.049 329.151C552.892 329.25 552.729 329.345 552.567 329.439C552.273 329.612 551.979 329.785 551.68 329.963L551.402 330.125C538.405 337.356 523.757 341.111 508.878 341.026H113.901C86.6645 341.026 62.0089 331.56 44.1453 316.26C26.2817 300.96 15.2729 279.786 15.2729 256.433C5.26983 241.056 -0.0366477 223.105 0.000190506 204.77C0.000190506 152.86 41.5596 110.778 92.8324 110.778C94.647 110.778 96.446 110.841 98.2345 110.94C130.406 56.1719 202.972 17.9805 287.276 17.9805C339.105 17.9805 386.481 32.4057 422.769 56.2399C436.516 48.4822 452.042 44.4142 467.832 44.4328C519.095 44.4328 560.664 86.5145 560.664 138.424C560.657 141.709 560.482 144.991 560.14 148.257C572.497 156.99 582.569 168.562 589.506 181.996C596.443 195.43 600.043 210.332 600 225.447Z" fill="#16697B"/>
<path opacity="0.1" d="M216.608 255.13C330.155 255.13 422.202 252.668 422.202 249.632C422.202 246.595 330.155 244.134 216.608 244.134C103.061 244.134 11.0137 246.595 11.0137 249.632C11.0137 252.668 103.061 255.13 216.608 255.13Z" fill="#16697B"/>
<g opacity="0.7">
<path opacity="0.7" d="M140.035 209.053H74.4756V245.181H140.035V209.053Z" fill="#65617D"/>
<path opacity="0.1" d="M117.483 215.336H97.5527V219.525H117.483V215.336Z" fill="black"/>
<path opacity="0.1" d="M114.991 215.86H100.044V219.002H114.991V215.86Z" fill="black"/>
<path opacity="0.7" d="M206.643 209.053H141.084V245.181H206.643V209.053Z" fill="#65617D"/>
<path opacity="0.1" d="M184.091 215.336H164.161V219.525H184.091V215.336Z" fill="black"/>
<path opacity="0.1" d="M181.6 215.86H166.652V219.002H181.6V215.86Z" fill="black"/>
<path opacity="0.7" d="M140.035 171.877H74.4756V208.006H140.035V171.877Z" fill="#65617D"/>
<path opacity="0.1" d="M117.483 178.16H97.5527V182.349H117.483V178.16Z" fill="black"/>
<path opacity="0.1" d="M114.991 178.684H100.044V181.826H114.991V178.684Z" fill="black"/>
<path opacity="0.7" d="M206.643 171.877H141.084V208.006H206.643V171.877Z" fill="#65617D"/>
<path opacity="0.1" d="M184.091 178.16H164.161V182.349H184.091V178.16Z" fill="black"/>
<path opacity="0.1" d="M181.6 178.684H166.652V181.826H181.6V178.684Z" fill="black"/>
<path opacity="0.7" d="M140.035 134.178H74.4756V170.306H140.035V134.178Z" fill="#65617D"/>
<path opacity="0.1" d="M117.483 140.461H97.5527V144.65H117.483V140.461Z" fill="black"/>
<path opacity="0.1" d="M114.991 140.985H100.044V144.127H114.991V140.985Z" fill="black"/>
<path opacity="0.7" d="M206.643 134.178H141.084V170.306H206.643V134.178Z" fill="#65617D"/>
<path opacity="0.1" d="M184.091 140.461H164.161V144.65H184.091V140.461Z" fill="black"/>
<path opacity="0.1" d="M181.6 140.985H166.652V144.127H181.6V140.985Z" fill="black"/>
<path opacity="0.7" d="M206.643 96.4786H141.084V132.607H206.643V96.4786Z" fill="#65617D"/>
<path opacity="0.1" d="M184.091 102.762H164.161V106.951H184.091V102.762Z" fill="black"/>
<path opacity="0.1" d="M181.6 103.285H166.652V106.428H181.6V103.285Z" fill="black"/>
</g>
<g opacity="0.7">
<path opacity="0.7" d="M273.252 208.529H207.692V244.658H273.252V208.529Z" fill="#65617D"/>
<path opacity="0.1" d="M250.7 214.812H230.77V219.001H250.7V214.812Z" fill="black"/>
<path opacity="0.1" d="M248.208 215.336H233.261V218.478H248.208V215.336Z" fill="black"/>
<path opacity="0.7" d="M339.86 208.529H274.301V244.658H339.86V208.529Z" fill="#65617D"/>
<path opacity="0.1" d="M317.308 214.812H297.378V219.001H317.308V214.812Z" fill="black"/>
<path opacity="0.1" d="M314.817 215.336H299.869V218.478H314.817V215.336Z" fill="black"/>
<path opacity="0.7" d="M273.252 171.353H207.692V207.482H273.252V171.353Z" fill="#65617D"/>
<path opacity="0.1" d="M250.7 177.637H230.77V181.825H250.7V177.637Z" fill="black"/>
<path opacity="0.1" d="M248.208 178.16H233.261V181.303H248.208V178.16Z" fill="black"/>
<path opacity="0.7" d="M339.86 171.353H274.301V207.482H339.86V171.353Z" fill="#65617D"/>
<path opacity="0.1" d="M317.308 177.637H297.378V181.825H317.308V177.637Z" fill="black"/>
<path opacity="0.1" d="M314.817 178.16H299.869V181.303H314.817V178.16Z" fill="black"/>
<path opacity="0.7" d="M273.252 133.654H207.692V169.783H273.252V133.654Z" fill="#65617D"/>
<path opacity="0.1" d="M250.7 139.937H230.77V144.126H250.7V139.937Z" fill="black"/>
<path opacity="0.1" d="M248.208 140.461H233.261V143.603H248.208V140.461Z" fill="black"/>
<path opacity="0.7" d="M339.86 133.654H274.301V169.783H339.86V133.654Z" fill="#65617D"/>
<path opacity="0.1" d="M317.308 139.937H297.378V144.126H317.308V139.937Z" fill="black"/>
<path opacity="0.1" d="M314.817 140.461H299.869V143.603H314.817V140.461Z" fill="black"/>
<path opacity="0.7" d="M339.86 95.955H274.301V132.083H339.86V95.955Z" fill="#65617D"/>
<path opacity="0.1" d="M317.308 102.238H297.378V106.427H317.308V102.238Z" fill="black"/>
<path opacity="0.1" d="M314.817 102.762H299.869V105.904H314.817V102.762Z" fill="black"/>
</g>
<path opacity="0.1" d="M460.642 0.0576483C460.642 0.0576483 416.486 -2.60225 421.678 28.2902C421.678 28.2902 420.629 33.7513 425.601 36.228C425.601 36.228 425.68 33.9398 430.133 34.72C431.718 34.9823 433.329 35.0596 434.932 34.9504C437.098 34.8011 439.156 33.9519 440.796 32.5313C440.796 32.5313 453.21 27.4105 458.035 7.15766C458.035 7.15766 461.607 2.73848 461.465 1.60227L454.012 4.78052C454.012 4.78052 456.561 10.1474 454.537 14.6085C454.537 14.6085 454.296 4.97426 452.864 5.1837C452.575 5.23082 448.993 7.04248 448.993 7.04248C448.993 7.04248 453.372 16.3887 450.068 23.1851C450.068 23.1851 451.322 11.6659 447.624 7.71792L442.379 10.7757C442.379 10.7757 447.498 20.4309 444.026 28.3111C444.026 28.3111 444.918 16.2264 441.273 11.5193L436.521 15.2211C436.521 15.2211 441.33 24.7402 438.399 31.2747C438.399 31.2747 438.016 17.2056 435.493 16.1427C435.493 16.1427 431.334 19.8079 430.699 21.3053C430.699 21.3053 433.993 28.2169 431.948 31.8611C431.948 31.8611 430.694 22.4887 429.666 22.4363C429.666 22.4363 425.523 28.6462 425.093 32.9083C425.093 32.9083 425.271 26.5728 428.664 21.8447C428.664 21.8447 424.657 22.5306 422.318 25.1276C422.318 25.1276 422.963 20.7346 429.687 20.3524C429.687 20.3524 433.112 15.64 434.025 15.352C434.025 15.352 427.343 14.797 423.289 16.5877C423.289 16.5877 426.855 12.446 435.252 14.331L439.946 10.5035C439.946 10.5035 431.145 9.30443 427.411 10.6291C427.411 10.6291 431.706 6.96394 441.21 9.63953L446.329 6.61312C446.329 6.61312 438.823 5.00043 434.355 5.56592C434.355 5.56592 439.075 3.02646 447.829 5.7806L451.5 4.14173C451.5 4.14173 446.004 3.06311 444.393 2.89032C442.783 2.71754 442.699 2.27771 442.699 2.27771C446.182 1.69801 449.757 2.09498 453.026 3.4244C453.026 3.4244 460.778 0.544597 460.642 0.0576483Z" fill="#16697B"/>
<path opacity="0.1" d="M406.18 7.91687C406.18 7.91687 386.25 6.71259 388.584 20.677C388.584 20.677 388.117 23.1432 390.351 24.2637C390.351 24.2637 390.388 23.2165 392.402 23.5778C393.117 23.6979 393.844 23.7331 394.568 23.6825C395.547 23.6161 396.477 23.2317 397.216 22.5881C397.216 22.5881 402.828 20.2791 405.01 11.1265C405.01 11.1265 406.62 9.12639 406.557 8.61326L403.19 10.0479C403.19 10.0479 404.344 12.4774 403.437 14.4933C403.437 14.4933 403.327 10.1369 402.682 10.2416C402.55 10.2416 400.93 11.0794 400.93 11.0794C400.93 11.0794 402.912 15.3049 401.418 18.3784C401.418 18.3784 401.984 13.1738 400.311 11.3883L397.94 12.7706C397.94 12.7706 400.258 17.1322 398.685 20.6927C398.685 20.6927 399.089 15.2316 397.442 13.1057L395.297 14.776C395.297 14.776 397.468 19.08 396.147 22.0331C396.147 22.0331 395.973 15.6714 394.83 15.1949C394.83 15.1949 392.953 16.8495 392.664 17.5302C392.664 17.5302 394.154 20.6718 393.23 22.2949C393.23 22.2949 392.664 18.059 392.182 18.0433C392.182 18.0433 390.314 20.8498 390.115 22.7557C390.209 20.977 390.765 19.2534 391.73 17.7553C390.65 17.9596 389.653 18.4747 388.862 19.2371C388.862 19.2371 389.155 17.2579 392.192 17.0799C392.192 17.0799 393.765 14.9541 394.154 14.8232C394.154 14.8232 391.133 14.5718 389.302 15.3834C389.302 15.3834 390.912 13.5089 394.71 14.3624L396.807 12.6345C396.807 12.6345 392.832 12.1109 391.143 12.6921C391.143 12.6921 393.084 11.0375 397.379 12.2418L399.687 10.8647C399.687 10.8647 396.299 10.1317 394.274 10.3987C394.274 10.3987 396.409 9.24681 400.363 10.493L402.015 9.7547C402.015 9.7547 399.529 9.26252 398.8 9.18921C398.071 9.11591 398.035 8.91171 398.035 8.91171C399.609 8.65023 401.225 8.83153 402.703 9.43531C402.703 9.43531 406.243 8.13678 406.18 7.91687Z" fill="#16697B"/>
<path d="M117.582 337.597C129.23 337.597 138.671 336.002 138.671 334.036C138.671 332.07 129.23 330.476 117.582 330.476C105.935 330.476 96.4932 332.07 96.4932 334.036C96.4932 336.002 105.935 337.597 117.582 337.597Z" fill="#16697B"/>
<path d="M126.304 328.214C127.267 327.431 127.968 326.373 128.313 325.182C128.575 323.983 128.061 322.564 126.908 322.098C125.617 321.606 124.238 322.501 123.194 323.402C122.151 324.302 120.95 325.334 119.586 325.14C120.289 324.503 120.814 323.695 121.112 322.795C121.41 321.895 121.47 320.933 121.285 320.004C121.226 319.618 121.062 319.257 120.813 318.956C120.095 318.192 118.799 318.517 117.939 319.119C115.212 321.035 114.451 324.737 114.436 328.062C114.163 326.863 114.394 325.611 114.388 324.397C114.383 323.182 114.042 321.779 112.999 321.135C112.355 320.789 111.631 320.619 110.901 320.642C109.679 320.595 108.31 320.721 107.476 321.616C106.427 322.726 106.705 324.59 107.607 325.805C108.509 327.02 109.888 327.8 111.158 328.643C112.173 329.247 113.039 330.072 113.691 331.057C113.769 331.194 113.833 331.34 113.88 331.491H121.568C123.288 330.617 124.881 329.515 126.304 328.214Z" fill="#16697B"/>
<path d="M376.237 179.077C376.194 178.68 376.052 178.3 375.824 177.973C375.596 177.645 375.289 177.38 374.931 177.202C374.63 177.074 374.307 177.008 373.979 177.007C373.652 177.007 373.328 177.072 373.027 177.199C372.725 177.326 372.453 177.512 372.225 177.747C371.997 177.981 371.819 178.259 371.701 178.563L360.052 203.031L357.43 299.374H361.625L363.199 203.246L376.017 180.595C376.249 180.125 376.326 179.593 376.237 179.077Z" fill="#3F3D56"/>
<path opacity="0.1" d="M564.105 321.135C560.668 324.133 556.968 326.816 553.049 329.151C552.988 329.237 552.919 329.318 552.844 329.392C552.428 329.744 551.934 329.992 551.402 330.114C538.405 337.346 523.757 341.101 508.878 341.016H220.51C187.468 337.623 167.308 333.125 167.308 328.187C167.308 324.36 179.413 320.794 200.255 317.81C202.416 317.496 204.669 317.192 207.016 316.899C208.46 316.717 209.937 316.543 211.447 316.375L214.012 316.077C215.914 315.86 217.867 315.649 219.871 315.443H220.033L222.131 315.234C223.904 315.05 225.713 314.878 227.559 314.71L228.902 314.59L232.327 314.286C234.551 314.087 236.823 313.897 239.145 313.715C241.072 313.565 243.03 313.415 245.019 313.265C265.19 311.773 288.446 310.647 313.752 309.919L320.979 309.673L323.413 309.621L328.552 309.505L330.614 309.464L332.78 309.422L334.322 309.395L341.559 309.28L345.278 309.228H346.038C354.832 309.123 363.79 309.069 372.913 309.066C390.944 309.066 408.43 309.28 425.093 309.689C434.659 309.919 443.933 310.212 452.916 310.568H453C478.898 311.584 502.08 313.082 521.266 314.94L521.617 314.977C526.542 315.454 531.204 315.961 535.579 316.485C539.696 316.977 543.561 317.496 547.148 318.024C548.392 318.208 549.598 318.396 550.773 318.579L551.072 318.632C556.044 319.433 560.407 320.25 564.105 321.135Z" fill="#16697B"/>
<path d="M553.049 329.151C552.988 329.237 552.919 329.318 552.844 329.392C552.428 329.744 551.934 329.992 551.402 330.114C550.341 330.411 549.25 330.587 548.15 330.638H547.82C547.191 330.659 546.562 330.638 545.937 330.575C545.48 330.509 545.019 330.479 544.558 330.486H544.495C543.824 330.58 543.165 330.743 542.528 330.973C541.109 331.361 539.646 331.569 538.175 331.591H537.65C536.003 331.591 534.335 331.533 532.683 331.544C532.416 331.544 532.159 331.544 531.881 331.544C529.049 331.617 526.232 332.067 523.4 332.115H522.493C519.718 332.046 516.881 331.455 514.673 329.779C514.228 329.485 513.866 329.081 513.624 328.606C513.436 328.105 513.373 327.566 513.44 327.036C513.493 326.088 513.676 325.056 514.39 324.418C514.838 324.074 515.352 323.827 515.9 323.69C516.86 323.381 517.825 323.082 518.785 322.784C519.745 322.486 520.841 322.166 521.874 321.862L522.073 321.8L522.65 321.627L523.023 321.501C523.474 321.356 523.907 321.16 524.313 320.915C524.848 320.577 525.301 320.124 525.64 319.59C525.697 319.496 525.76 319.396 525.813 319.297C525.865 319.197 525.813 319.134 525.776 319.051C525.687 318.396 525.619 317.726 525.503 317.087C524.027 316.746 522.681 315.986 521.627 314.899C520.722 314.002 519.96 312.973 519.367 311.846C518.061 309.396 517.39 306.657 516.414 304.055C514.919 300.096 512.743 296.442 510.551 292.818C508.547 289.478 506.533 286.127 504.257 282.969C502.741 280.875 501.11 278.88 499.61 276.78C495.367 270.922 492.323 264.285 490.652 257.25C490.396 255.9 490.033 254.573 489.566 253.281C488.664 251.082 487.012 249.291 485.732 247.281C484.357 245.113 483.414 242.701 482.958 240.176C482.696 238.741 482.255 237.191 480.823 237.034L480.671 237.332C477.703 243.092 474.655 248.956 470.182 253.658C469.466 254.349 468.811 255.101 468.225 255.904C467.755 256.684 467.335 257.492 466.967 258.324C466.258 259.817 465.319 261.19 464.182 262.392C463.843 262.733 463.475 263.044 463.08 263.319C462.556 263.699 461.973 263.991 461.355 264.183C461.111 264.257 460.862 264.313 460.61 264.35C460.61 264.413 460.636 264.471 460.641 264.533C460.647 264.596 460.673 264.67 460.683 264.738C461.455 268.927 461.124 273.244 459.724 277.267C459.687 277.393 459.645 277.513 459.598 277.639C459.381 278.226 459.145 278.802 458.89 279.367C458.25 280.755 457.489 282.085 456.891 283.493C456.792 283.734 456.692 283.975 456.603 284.216C454.505 289.823 455.03 296.086 454.757 302.112C454.733 303.43 454.576 304.742 454.29 306.029C453.933 307.479 453.362 308.977 453.047 310.474C452.76 311.597 452.737 312.771 452.979 313.904L452.853 313.951C452.292 314.16 451.72 314.349 451.148 314.527V314.605C451.353 315.778 451.552 316.951 451.757 318.119C451.93 319.124 452.134 320.213 452.837 320.925C453.029 321.082 453.204 321.258 453.362 321.449C453.776 322.098 453.409 322.957 453.488 323.726C453.603 324.816 454.61 325.742 454.453 326.826C454.382 327.15 454.233 327.452 454.019 327.705C453.805 327.959 453.533 328.157 453.225 328.282C452.967 328.399 452.696 328.485 452.418 328.538L452.245 328.575C451.93 328.633 451.615 328.664 451.3 328.695C447.393 329.083 443.433 329.47 439.563 328.811C438.797 328.68 438.037 328.507 437.26 328.444C436.28 328.4 435.297 328.441 434.323 328.565C427.143 329.243 419.921 329.383 412.72 328.983C410.848 328.879 408.697 328.575 407.706 326.978C406.883 325.653 407.182 323.941 407.596 322.428C407.715 321.872 407.929 321.34 408.231 320.857C408.264 320.805 408.303 320.756 408.346 320.711C409.311 319.511 411.126 319.438 412.689 319.485L417.797 319.637C418.3 319.678 418.806 319.639 419.297 319.522C420.126 319.281 420.755 318.621 421.531 318.25C422.507 317.784 423.734 317.726 424.437 316.93L424.526 316.815C424.65 316.646 424.766 316.472 424.872 316.291C424.872 316.255 424.919 316.218 424.946 316.181C424.965 316.149 424.986 316.117 425.009 316.087C425.654 315.239 426.781 314.956 427.699 314.417C427.838 314.336 427.97 314.243 428.092 314.139L428.197 314.045C427.209 313.341 426.347 312.476 425.648 311.485C425.379 311.195 425.18 310.848 425.066 310.469C425.002 310.184 425.024 309.887 425.129 309.615C425.152 309.549 425.18 309.484 425.213 309.422L425.239 309.369C425.596 308.668 426.33 308.034 426.734 307.317C426.749 307.294 426.762 307.269 426.771 307.243C427.327 306.196 427.437 304.573 426.613 303.73C427.033 296.834 428.932 290.117 429.351 283.2C429.519 280.461 429.451 277.712 429.577 274.964C429.703 272.215 429.996 269.55 430.306 266.853C430.998 260.69 432.676 254.653 432.44 248.464C432.42 247.887 432.445 247.309 432.514 246.736C432.511 246.694 432.511 246.652 432.514 246.611C432.682 245.342 433.078 244.115 433.683 242.987C434.444 241.713 435.305 240.501 436.259 239.364C439.484 235.175 443.36 230.986 444.509 225.834C445.101 223.174 446.412 220.74 447.718 218.347C448.489 216.922 449.292 215.462 450.524 214.414C451.192 213.953 451.812 213.427 452.376 212.844C453.236 211.734 453.267 210.199 453.776 208.88C454.038 208.194 454.442 207.566 454.641 206.859C454.641 206.786 454.678 206.717 454.694 206.644C454.81 205.931 454.871 205.21 454.877 204.487C454.877 204.277 454.909 204.073 454.935 203.869C455.241 201.799 455.844 199.784 456.724 197.884C456.834 197.643 456.939 197.397 457.044 197.157C454.624 195.747 452.489 193.898 450.75 191.706C450.16 190.996 449.648 190.226 449.224 189.407C448.143 187.266 447.897 184.826 447.388 182.48C446.171 176.888 443.386 171.621 442.998 165.903C442.883 164.159 442.998 162.358 442.39 160.709C442.222 160.263 442.024 159.829 441.797 159.41C441.703 159.232 441.613 159.054 441.519 158.887L441.414 158.688L441.147 158.164L440.717 158.499C429.987 166.887 418.722 174.568 406.993 181.496L405.986 182.093C405.462 182.345 405.005 182.718 404.654 183.182C404.612 183.25 404.575 183.318 404.538 183.386C404.297 183.883 404.234 184.433 404.014 184.957C403.542 186.156 402.33 186.92 401.092 187.276C398.853 187.851 396.478 187.546 394.458 186.423C394.201 186.292 393.933 186.156 393.703 186.004C393.089 186.343 392.442 186.619 391.773 186.826C389.675 187.433 387.477 187.407 385.306 187.402C383.134 187.397 380.916 187.402 378.86 188.114C377.486 188.58 376.154 189.35 374.727 189.423C374.563 189.433 374.398 189.433 374.234 189.423C373.421 189.33 372.63 189.098 371.895 188.737L371.465 188.543C371.242 188.438 371.025 188.321 370.815 188.192C370.585 188.051 370.372 187.884 370.18 187.695C369.902 187.417 369.7 187.073 369.592 186.695C369.522 186.422 369.522 186.135 369.592 185.862C369.613 185.74 369.676 185.629 369.771 185.548C369.864 185.493 369.972 185.466 370.08 185.47C370.682 185.463 371.282 185.514 371.874 185.622C372.221 185.669 372.572 185.688 372.923 185.679H373.112C373.421 185.646 373.72 185.55 373.991 185.397C374.261 185.244 374.498 185.037 374.685 184.789C374.743 184.712 374.789 184.628 374.821 184.538C374.885 184.391 374.917 184.232 374.916 184.072C374.919 184.032 374.919 183.991 374.916 183.951C374.696 183.852 374.475 183.752 374.266 183.632C374.155 183.574 374.051 183.512 373.946 183.449L373.883 183.407C373.694 183.279 373.519 183.133 373.358 182.972C373.256 182.871 373.166 182.759 373.091 182.637C372.951 182.447 372.847 182.235 372.781 182.009C372.349 181.919 371.902 181.931 371.475 182.045C370.904 182.202 370.327 182.538 369.76 182.653C369.474 182.725 369.174 182.712 368.895 182.616C368.077 182.323 367.788 181.328 367.615 180.475C367.584 180.312 367.547 180.145 367.521 179.977C367.461 179.655 367.461 179.325 367.521 179.003C367.774 178.272 368.258 177.642 368.9 177.207L370.62 175.767L370.746 175.663C370.746 175.521 370.689 175.38 370.668 175.239C370.607 174.915 370.607 174.583 370.668 174.259C370.921 173.529 371.405 172.901 372.047 172.469L375.855 169.27C376.568 168.673 377.344 168.044 378.273 167.982C379.652 167.887 380.753 169.029 381.787 169.945C383.087 171.097 384.666 172.039 386.402 172.155C387.229 172.192 388.055 172.079 388.841 171.82L389.287 171.673C389.192 171.479 389.098 171.285 389.009 171.092C388.856 170.772 388.704 170.448 388.557 170.123C390.792 169.982 392.822 168.756 394.516 167.29C396.21 165.824 397.662 164.091 399.372 162.651C401.218 161.08 403.337 159.913 405.21 158.4C409.563 154.876 412.453 149.697 417.11 146.592C418.725 145.509 420.592 144.645 421.694 143.032C422.035 142.508 422.292 141.985 422.643 141.461C423.76 139.89 425.675 139.168 427.253 138.079C428.832 136.99 430.206 135.393 431.491 133.858C432.404 132.764 433.321 131.67 434.192 130.544C434.995 129.052 435.671 127.491 436.51 126.02C437.222 124.777 438.053 123.606 438.991 122.523C439.206 122.104 439.426 121.685 439.662 121.276C439.898 120.868 440.071 120.59 440.292 120.229C440.444 119.994 440.601 119.768 440.764 119.538C440.287 118.695 439.83 117.967 439.615 117.648L439.51 117.506C439.048 117.014 438.554 116.553 438.031 116.124C437.483 116.041 436.94 115.926 436.405 115.779C433.169 114.893 430.313 112.969 428.279 110.304C426.245 107.639 425.146 104.379 425.15 101.029C425.148 101.013 425.148 100.997 425.15 100.982C425.152 98.582 425.724 96.217 426.818 94.0806C427.038 93.6512 427.274 93.2376 427.531 92.8344C427.292 92.7588 427.058 92.6643 426.834 92.5517C426.451 92.3634 426.117 92.0892 425.858 91.7505C425.644 91.4489 425.506 91.1006 425.454 90.7348C425.366 89.8718 425.495 89.0004 425.832 88.2005C425.975 87.8155 426.138 87.438 426.32 87.0696C426.334 87.048 426.346 87.0252 426.356 87.0015C428.701 82.2891 433.699 79.3936 438.692 79.1894C444.078 78.9747 449.323 81.4985 453.571 85.1113C454.839 86.1497 455.974 87.3403 456.949 88.6561C459.168 91.7348 460.169 95.6723 460.463 99.5731C460.573 100.78 460.552 101.994 460.4 103.196C460.345 103.625 460.257 104.048 460.138 104.464C460.07 104.71 459.981 104.956 459.886 105.202C459.792 105.448 459.734 105.558 459.65 105.725V105.752C459.572 105.919 459.482 106.076 459.393 106.233L459.346 106.301L459.278 106.411C459.32 106.511 459.367 106.616 459.414 106.715C459.461 106.815 459.503 106.909 459.556 107.003H459.619C460.668 107.087 461.638 107.233 462.708 107.317C463.211 107.341 463.71 107.418 464.197 107.548C465.246 107.862 466.038 108.626 466.919 109.244C469.101 110.783 471.787 111.501 473.932 113.092C477.078 115.438 478.652 119.313 480.561 122.784C483.078 127.434 487.18 131.392 488.989 136.367C489.808 138.625 490.629 140.88 491.454 143.131C493.064 147.545 494.675 151.98 496.862 156.143C499.904 161.934 504.021 167.139 506.46 173.223C506.702 173.833 507.156 174.335 507.739 174.636C511.062 179.321 514.017 184.256 516.577 189.397C517.925 192.114 519.199 194.936 519.592 197.947C519.899 200.628 519.677 203.342 518.937 205.937C518.519 207.479 518.005 208.993 517.4 210.472C517.164 210.989 516.988 211.532 516.876 212.09C516.876 212.147 516.876 212.205 516.876 212.262C516.771 213.268 517.154 214.263 517.259 215.268C517.346 216.077 517.255 216.896 516.991 217.666C516.949 217.786 516.902 217.907 516.855 218.027C516.529 218.639 516.254 219.277 516.031 219.933C516.012 220.012 515.998 220.093 515.989 220.174C515.816 221.31 516.267 222.457 516.514 223.593C517.437 227.698 517.269 231.971 517.038 236.16C516.918 238.254 518.612 239.935 520.028 241.479C522.65 244.375 524.701 247.763 526.678 251.134C527.757 252.846 528.665 254.66 529.39 256.549C530.14 258.706 530.439 260.989 530.853 263.224C532.19 270.136 536.559 276.241 537.745 283.168C538.294 286.341 539.695 289.305 541.799 291.745C542.433 292.399 543.016 293.099 543.545 293.839C543.911 294.43 544.201 295.063 544.411 295.724C544.926 297.264 545.17 298.882 545.129 300.505C545.046 301.282 545.09 302.067 545.26 302.83C545.753 304.437 547.516 305.322 548.245 306.835C548.974 308.348 548.47 310.286 548.769 312.003C549.004 313.388 549.753 314.633 550.867 315.49C550.447 315.857 550.007 316.192 549.556 316.537C549.973 316.861 550.339 317.246 550.641 317.679C550.848 317.969 551.024 318.279 551.166 318.606C551.858 320.213 551.879 322.124 552.446 323.842C552.687 324.554 553.028 325.308 552.818 326.03C552.728 326.237 552.668 326.456 552.64 326.68C552.64 327.151 553.133 327.46 553.321 327.889C553.39 328.105 553.401 328.335 553.353 328.556C553.305 328.778 553.2 328.983 553.049 329.151Z" fill="url(#paint0_linear_95_612)"/>
<path d="M442.049 124.947C445.258 124.083 448.117 122.276 450.918 120.491L460.678 114.286C458.029 114.077 455.743 112.192 454.384 109.909C453.026 107.626 452.465 104.971 452.003 102.364C447.807 103.998 444.173 106.767 440.785 109.694C439.442 110.851 436.589 112.6 436.175 114.407C435.76 116.213 438.404 117.679 439.426 118.889C439.778 119.292 443.087 124.659 442.049 124.947Z" fill="#FBBEBE"/>
<path opacity="0.1" d="M442.049 124.947C445.258 124.083 448.117 122.276 450.918 120.491L460.678 114.286C458.029 114.077 455.743 112.192 454.384 109.909C453.026 107.626 452.465 104.971 452.003 102.364C447.807 103.998 444.173 106.767 440.785 109.694C439.442 110.851 436.589 112.6 436.175 114.407C435.76 116.213 438.404 117.679 439.426 118.889C439.778 119.292 443.087 124.659 442.049 124.947Z" fill="black"/>
<path d="M388.715 176.197C386.995 177.076 385.165 177.977 383.24 177.851C381.509 177.741 379.93 176.804 378.63 175.657C377.581 174.746 376.5 173.61 375.121 173.704C374.198 173.767 373.422 174.39 372.708 174.982L368.906 178.16C368.266 178.59 367.782 179.214 367.527 179.94C367.451 180.433 367.482 180.937 367.616 181.417C367.789 182.265 368.077 183.255 368.895 183.543C369.714 183.831 370.605 183.213 371.471 182.977C371.999 182.842 372.554 182.852 373.078 183.006C373.601 183.16 374.073 183.452 374.444 183.852C374.753 184.155 374.94 184.561 374.969 184.993C374.969 185.941 373.92 186.564 372.955 186.611C371.99 186.658 371.067 186.344 370.112 186.402C370.055 186.394 369.996 186.399 369.94 186.414C369.884 186.43 369.832 186.457 369.786 186.493C369.741 186.529 369.703 186.574 369.675 186.625C369.648 186.676 369.63 186.731 369.624 186.789C369.565 187.12 369.59 187.46 369.698 187.779C369.805 188.097 369.991 188.383 370.238 188.611C370.736 189.065 371.317 189.421 371.948 189.659C372.682 190.021 373.473 190.251 374.287 190.339C375.897 190.444 377.376 189.554 378.902 189.035C380.958 188.344 383.172 188.323 385.343 188.329C387.514 188.334 389.717 188.365 391.799 187.758C393.881 187.15 395.859 185.805 396.672 183.799C396.768 183.612 396.799 183.399 396.761 183.192C396.68 182.971 396.524 182.786 396.32 182.668C393.394 180.506 392.208 177.878 388.915 176.322L388.715 176.197Z" fill="#FBBEBE"/>
<path opacity="0.1" d="M388.715 176.197C386.995 177.076 385.165 177.977 383.24 177.851C381.509 177.741 379.93 176.804 378.63 175.657C377.581 174.746 376.5 173.61 375.121 173.704C374.198 173.767 373.422 174.39 372.708 174.982L368.906 178.16C368.266 178.59 367.782 179.214 367.527 179.94C367.451 180.433 367.482 180.937 367.616 181.417C367.789 182.265 368.077 183.255 368.895 183.543C369.714 183.831 370.605 183.213 371.471 182.977C371.999 182.842 372.554 182.852 373.078 183.006C373.601 183.16 374.073 183.452 374.444 183.852C374.753 184.155 374.94 184.561 374.969 184.993C374.969 185.941 373.92 186.564 372.955 186.611C371.99 186.658 371.067 186.344 370.112 186.402C370.055 186.394 369.996 186.399 369.94 186.414C369.884 186.43 369.832 186.457 369.786 186.493C369.741 186.529 369.703 186.574 369.675 186.625C369.648 186.676 369.63 186.731 369.624 186.789C369.565 187.12 369.59 187.46 369.698 187.779C369.805 188.097 369.991 188.383 370.238 188.611C370.736 189.065 371.317 189.421 371.948 189.659C372.682 190.021 373.473 190.251 374.287 190.339C375.897 190.444 377.376 189.554 378.902 189.035C380.958 188.344 383.172 188.323 385.343 188.329C387.514 188.334 389.717 188.365 391.799 187.758C393.881 187.15 395.859 185.805 396.672 183.799C396.768 183.612 396.799 183.399 396.761 183.192C396.68 182.971 396.524 182.786 396.32 182.668C393.394 180.506 392.208 177.878 388.915 176.322L388.715 176.197Z" fill="black"/>
<path d="M450.131 120.355C449.317 119.83 448.393 119.5 447.431 119.388C446.469 119.276 445.494 119.387 444.582 119.711C442.754 120.368 441.115 121.459 439.804 122.889C438.495 124.222 437.361 125.715 436.431 127.334C435.54 128.905 434.858 130.549 433.966 132.115C432.393 134.916 430.337 137.388 428.27 139.838C426.985 141.362 425.685 142.906 424.038 144.027C422.391 145.147 420.55 145.833 419.433 147.388C419.082 147.88 418.83 148.435 418.484 148.933C417.388 150.535 415.526 151.394 413.905 152.467C409.258 155.556 406.368 160.698 402.026 164.201C400.153 165.709 398.04 166.892 396.199 168.432C394.484 169.861 393.052 171.573 391.342 173.039C389.632 174.506 387.624 175.715 385.395 175.851C386.884 179.166 388.662 182.417 391.216 184.999C393.77 187.58 397.599 189.229 401.087 188.219C402.325 187.863 403.536 187.109 404.008 185.915C404.157 185.301 404.364 184.703 404.627 184.129C404.977 183.669 405.432 183.297 405.954 183.045C419.955 174.886 433.301 165.656 445.872 155.436C449.244 152.692 452.59 150.237 456.052 147.582C457.293 146.703 458.441 145.7 459.477 144.587C460.92 142.866 461.822 140.757 462.068 138.526C462.315 136.295 461.895 134.04 460.861 132.047C459.933 130.522 458.869 129.083 457.683 127.748C455.525 124.943 452.982 122.454 450.131 120.355Z" fill="#16697B"/>
<path opacity="0.1" d="M450.131 120.355C449.317 119.83 448.393 119.5 447.431 119.388C446.469 119.276 445.494 119.387 444.582 119.711C442.754 120.368 441.115 121.459 439.804 122.889C438.495 124.222 437.361 125.715 436.431 127.334C435.54 128.905 434.858 130.549 433.966 132.115C432.393 134.916 430.337 137.388 428.27 139.838C426.985 141.362 425.685 142.906 424.038 144.027C422.391 145.147 420.55 145.833 419.433 147.388C419.082 147.88 418.83 148.435 418.484 148.933C417.388 150.535 415.526 151.394 413.905 152.467C409.258 155.556 406.368 160.698 402.026 164.201C400.153 165.709 398.04 166.892 396.199 168.432C394.484 169.861 393.052 171.573 391.342 173.039C389.632 174.506 387.624 175.715 385.395 175.851C386.884 179.166 388.662 182.417 391.216 184.999C393.77 187.58 397.599 189.229 401.087 188.219C402.325 187.863 403.536 187.109 404.008 185.915C404.157 185.301 404.364 184.703 404.627 184.129C404.977 183.669 405.432 183.297 405.954 183.045C419.955 174.886 433.301 165.656 445.872 155.436C449.244 152.692 452.59 150.237 456.052 147.582C457.293 146.703 458.441 145.7 459.477 144.587C460.92 142.866 461.822 140.757 462.068 138.526C462.315 136.295 461.895 134.04 460.861 132.047C459.933 130.522 458.869 129.083 457.683 127.748C455.525 124.943 452.982 122.454 450.131 120.355Z" fill="black"/>
<path d="M427.595 314.595C426.677 315.118 425.549 315.412 424.904 316.26C424.695 316.532 424.553 316.852 424.327 317.113C423.63 317.93 422.392 317.967 421.422 318.433C420.646 318.799 420.016 319.48 419.193 319.695C418.7 319.812 418.192 319.85 417.688 319.81L412.59 319.658C410.974 319.611 409.081 319.695 408.142 321.009C407.837 321.49 407.62 322.022 407.502 322.58C407.109 324.082 406.789 325.784 407.612 327.104C408.598 328.674 410.759 328.994 412.621 329.099C419.814 329.496 427.026 329.356 434.198 328.68C435.168 328.556 436.147 328.516 437.125 328.559C437.901 328.622 438.661 328.795 439.427 328.926C443.292 329.58 447.247 329.198 451.149 328.811C451.808 328.779 452.458 328.641 453.074 328.402C453.38 328.277 453.651 328.08 453.864 327.828C454.077 327.575 454.225 327.274 454.296 326.952C454.458 325.873 453.446 324.957 453.336 323.873C453.257 323.109 453.625 322.255 453.205 321.606C453.048 321.414 452.872 321.239 452.68 321.082C451.978 320.354 451.773 319.292 451.6 318.297L450.682 312.919C450.657 312.54 450.501 312.182 450.242 311.904C450.049 311.765 449.826 311.673 449.591 311.636C445.595 310.736 441.499 311.558 437.528 312.061C435.485 312.36 433.418 312.463 431.355 312.37C430.464 312.312 430.118 312.207 429.451 312.788C428.785 313.37 428.429 314.108 427.595 314.595Z" fill="#3F3D56"/>
<path d="M524.104 321.067C523.402 321.458 522.651 321.752 521.87 321.941C519.81 322.541 517.754 323.168 515.702 323.821C515.156 323.956 514.643 324.202 514.197 324.543C513.483 325.172 513.3 326.198 513.247 327.161C513.179 327.692 513.242 328.231 513.431 328.732C513.677 329.202 514.037 329.601 514.48 329.894C516.829 331.669 519.898 332.219 522.845 332.219C525.793 332.219 528.719 331.722 531.667 331.643C535.228 331.549 538.884 332.052 542.308 331.057C542.962 330.816 543.641 330.65 544.333 330.565C544.793 330.558 545.252 330.587 545.707 330.654C547.544 330.835 549.398 330.666 551.172 330.156C551.706 330.038 552.203 329.792 552.62 329.439C552.826 329.261 552.973 329.024 553.043 328.761C553.112 328.497 553.1 328.219 553.008 327.962C552.819 327.538 552.336 327.229 552.331 326.763C552.356 326.539 552.414 326.321 552.504 326.114C552.719 325.397 552.373 324.648 552.132 323.941C551.455 321.92 551.565 319.595 550.354 317.841C549.142 316.087 546.919 315.365 544.805 315.087C543.087 314.845 541.34 314.894 539.639 315.234C537.725 315.642 535.936 316.496 534.058 317.04C531.88 317.666 529.603 317.881 527.345 317.674C525.845 317.548 526.359 317.784 525.85 319.04C525.49 319.878 524.88 320.585 524.104 321.067Z" fill="#3F3D56"/>
<path d="M440.297 117.684C448.697 117.684 455.507 110.886 455.507 102.5C455.507 94.1139 448.697 87.3156 440.297 87.3156C431.897 87.3156 425.087 94.1139 425.087 102.5C425.087 110.886 431.897 117.684 440.297 117.684Z" fill="#FBBEBE"/>
<path d="M550.563 315.637C545.843 319.684 539.471 321.454 533.256 321.517C530.633 321.543 527.911 321.26 525.677 319.904C525.52 319.045 525.457 318.119 525.299 317.26C522.588 316.694 520.485 314.49 519.173 312.05C517.862 309.61 517.196 306.898 516.221 304.311C514.731 300.374 512.549 296.745 510.368 293.143C508.364 289.823 506.355 286.493 504.074 283.357C502.563 281.262 500.927 279.294 499.432 277.205C495.197 271.389 492.158 264.794 490.49 257.8C490.235 256.459 489.872 255.14 489.404 253.857C488.502 251.669 486.85 249.888 485.576 247.893C484.201 245.741 483.259 243.342 482.801 240.83C482.544 239.406 482.104 237.866 480.672 237.72C477.661 243.558 474.593 249.49 470.041 254.239C469.325 254.925 468.671 255.671 468.084 256.47C467.614 257.245 467.194 258.05 466.826 258.879C466.119 260.364 465.181 261.729 464.046 262.921C463.094 263.937 461.84 264.62 460.469 264.869C461.48 269.9 460.878 275.121 458.749 279.791C458.114 281.173 457.354 282.493 456.756 283.891C454.312 289.651 454.878 296.148 454.621 302.395C454.599 303.704 454.444 305.007 454.159 306.285C453.525 308.84 452.214 311.558 452.848 314.113C446.271 316.621 438.965 316.464 432 315.406C430.638 315.282 429.316 314.881 428.114 314.228C427.126 313.53 426.264 312.67 425.565 311.684C425.295 311.396 425.096 311.05 424.983 310.673C424.71 309.479 426.032 308.579 426.645 307.531C427.259 306.484 427.369 304.824 426.525 303.966C426.944 297.112 428.843 290.42 429.263 283.545C429.43 280.823 429.362 278.089 429.488 275.361C429.614 272.634 429.908 269.979 430.212 267.298C430.904 261.177 432.583 255.177 432.347 249.024C432.275 247.131 432.711 245.253 433.611 243.584C434.369 242.316 435.228 241.112 436.18 239.982C439.401 235.83 443.271 231.667 444.42 226.541C445.013 223.897 446.324 221.478 447.624 219.101C448.395 217.682 449.198 216.231 450.425 215.189C451.093 214.728 451.713 214.202 452.277 213.618C453.137 212.514 453.168 211.001 453.677 209.681C453.939 209 454.343 208.372 454.537 207.67C454.697 206.895 454.776 206.106 454.773 205.314C454.941 202.78 455.916 200.33 456.944 198.01C454.527 196.613 452.392 194.776 450.651 192.596C450.066 191.888 449.556 191.121 449.13 190.308C448.049 188.182 447.803 185.758 447.294 183.428C446.083 177.867 443.298 172.636 442.909 166.955C442.794 165.222 442.909 163.431 442.306 161.793C442.028 161.099 441.702 160.425 441.331 159.777C440.965 159.139 440.686 158.456 440.502 157.745C440.166 156.2 440.628 154.604 440.502 153.033C440.376 151.645 439.784 150.347 439.49 148.991C439.19 147.226 439.139 145.428 439.338 143.65C439.469 141.555 439.925 139.393 439.747 137.325C439.458 133.902 439.895 130.458 441.029 127.215C442.163 123.973 443.969 121.005 446.329 118.506L446.45 118.386C447.451 117.339 448.548 116.412 449.45 115.302C450.677 113.815 451.548 112.066 452.843 110.621C453.409 109.977 454.049 109.401 454.61 108.752C455.125 108.071 455.695 107.433 456.315 106.846C456.628 106.555 457.008 106.346 457.422 106.235C457.835 106.125 458.269 106.117 458.686 106.212C458.791 106.993 459.036 107.749 459.409 108.443C460.5 108.527 461.471 108.679 462.556 108.762C463.06 108.786 463.559 108.863 464.046 108.993C465.069 109.302 465.887 110.04 466.763 110.673C468.944 112.208 471.625 112.92 473.77 114.501C476.916 116.831 478.49 120.679 480.388 124.13C482.901 128.753 486.997 132.686 488.78 137.628L491.24 144.351C492.85 148.739 494.46 153.143 496.642 157.279C499.679 163.039 503.791 168.228 506.229 174.254C506.473 174.859 506.925 175.356 507.504 175.657C510.825 180.307 513.776 185.209 516.331 190.318C517.679 193.02 518.953 195.827 519.341 198.816C519.913 203.042 518.759 207.314 517.154 211.262C516.895 211.828 516.718 212.427 516.63 213.043C516.525 214.043 516.908 215.027 517.013 216.027C517.114 216.961 516.975 217.905 516.609 218.771C516.283 219.379 516.007 220.013 515.785 220.666C515.502 221.87 516.006 223.096 516.278 224.3C517.201 228.379 517.034 232.604 516.803 236.783C516.682 238.877 518.376 240.537 519.787 242.071C522.409 244.946 524.455 248.307 526.432 251.663C527.507 253.366 528.414 255.168 529.139 257.046C529.889 259.187 530.187 261.455 530.602 263.68C531.934 270.544 536.298 276.613 537.483 283.498C538.032 286.653 539.432 289.598 541.532 292.017C542.165 292.672 542.748 293.372 543.278 294.112C543.641 294.699 543.93 295.328 544.138 295.986C544.654 297.515 544.897 299.122 544.857 300.735C544.774 301.507 544.818 302.287 544.988 303.044C545.481 304.641 547.243 305.521 547.967 307.024C548.691 308.526 548.193 310.453 548.492 312.16C548.718 313.539 549.458 314.781 550.563 315.637Z" fill="#16697B"/>
<path d="M391.862 171.484C390.142 172.364 388.311 173.265 386.386 173.139C384.656 173.029 383.077 172.092 381.776 170.945C380.727 170.034 379.647 168.898 378.267 168.992C377.344 169.055 376.568 169.678 375.855 170.27L372.052 173.448C371.412 173.877 370.929 174.502 370.673 175.228C370.598 175.721 370.628 176.224 370.762 176.705C370.935 177.553 371.224 178.543 372.042 178.831C372.86 179.119 373.752 178.501 374.617 178.265C375.146 178.13 375.701 178.14 376.224 178.294C376.748 178.448 377.22 178.74 377.591 179.139C377.9 179.443 378.087 179.849 378.115 180.281C378.115 181.229 377.066 181.852 376.101 181.899C375.136 181.946 374.213 181.632 373.259 181.689C373.201 181.682 373.143 181.686 373.087 181.702C373.031 181.718 372.978 181.744 372.933 181.78C372.888 181.817 372.85 181.861 372.822 181.912C372.794 181.963 372.777 182.019 372.771 182.077C372.712 182.408 372.737 182.748 372.844 183.066C372.951 183.385 373.137 183.671 373.385 183.899C373.883 184.353 374.463 184.708 375.094 184.946C375.828 185.308 376.62 185.539 377.434 185.627C379.044 185.732 380.523 184.841 382.049 184.323C384.105 183.632 386.318 183.611 388.489 183.616C390.661 183.621 392.864 183.653 394.946 183.046C397.028 182.438 399.005 181.092 399.818 179.087C399.914 178.9 399.945 178.686 399.907 178.48C399.826 178.259 399.67 178.074 399.467 177.956C396.54 175.794 395.355 173.165 392.061 171.61L391.862 171.484Z" fill="#FBBEBE"/>
<path d="M432.897 93.1695C431.99 93.3161 431.219 93.9287 430.359 94.269C429.781 94.4929 429.163 94.5919 428.545 94.5594C427.926 94.5269 427.322 94.3637 426.771 94.0805C426.387 93.8942 426.052 93.6219 425.791 93.2846C425.088 92.3107 425.334 90.897 425.764 89.7556C427.799 84.3573 433.233 81.0167 438.614 80.802C443.995 80.5873 449.229 83.0954 453.472 86.6821C454.734 87.717 455.867 88.9001 456.845 90.2059C459.058 93.2689 460.06 97.1802 460.353 101.055C460.529 102.681 460.421 104.325 460.033 105.914C459.847 106.686 459.507 107.413 459.033 108.051C458.559 108.689 457.961 109.224 457.275 109.626C455.775 110.391 453.976 110.15 452.46 109.417C450.944 108.684 449.644 107.527 448.343 106.422C447.754 105.855 447.056 105.411 446.292 105.118C445.911 104.983 445.499 104.96 445.105 105.053C444.712 105.146 444.354 105.35 444.074 105.642C443.371 106.485 443.549 107.867 442.909 108.783C442.269 109.7 440.937 109.83 439.815 109.83C438.693 109.83 437.554 109.736 436.883 108.846C436.27 108.04 436.359 106.862 436.589 105.846C436.82 104.83 437.214 103.825 437.114 102.783C436.899 100.688 435.063 99.4003 434.492 97.4734C434.119 96.2116 434.937 95.6775 434.853 94.5361C434.79 93.5307 433.71 93.0386 432.897 93.1695Z" fill="#3F3D56"/>
<path opacity="0.1" d="M480.682 237.589V237.72C477.671 243.558 474.603 249.49 470.051 254.239C469.335 254.925 468.681 255.671 468.094 256.47C467.624 257.246 467.204 258.05 466.836 258.879C466.13 260.364 465.191 261.729 464.056 262.921L460.259 264.816L472.322 201.984L480.682 237.589Z" fill="black"/>
<path opacity="0.1" d="M463.149 142.493C462.113 143.605 460.965 144.609 459.724 145.488C456.263 148.106 452.906 150.577 449.544 153.342C446.834 155.544 444.086 157.701 441.299 159.813C440.934 159.176 440.655 158.493 440.471 157.782C440.135 156.237 440.596 154.64 440.471 153.069C440.345 151.682 439.752 150.383 439.458 149.027C439.159 147.263 439.107 145.465 439.306 143.686C439.437 141.592 439.894 139.43 439.715 137.361C439.425 133.931 439.864 130.478 441.004 127.228C442.144 123.979 443.958 121.007 446.329 118.506L446.45 118.386C447.014 118.058 447.612 117.792 448.233 117.59C449.147 117.27 450.123 117.164 451.085 117.28C452.048 117.396 452.97 117.732 453.782 118.26C456.634 120.36 459.176 122.848 461.334 125.654C462.521 126.988 463.584 128.427 464.513 129.952C465.549 131.944 465.972 134.197 465.73 136.428C465.487 138.66 464.589 140.769 463.149 142.493Z" fill="black"/>
<path d="M453.278 115.642C452.464 115.118 451.541 114.787 450.579 114.676C449.616 114.564 448.642 114.674 447.729 114.998C445.902 115.655 444.262 116.746 442.951 118.177C441.642 119.509 440.509 121.003 439.579 122.622C438.687 124.193 438.005 125.837 437.114 127.402C435.54 130.204 433.484 132.675 431.418 135.126C430.133 136.649 428.832 138.194 427.185 139.314C425.538 140.435 423.698 141.121 422.58 142.676C422.229 143.168 421.977 143.723 421.631 144.221C420.535 145.823 418.673 146.681 417.052 147.755C412.406 150.844 409.516 155.986 405.173 159.489C403.301 160.997 401.187 162.18 399.346 163.719C397.631 165.149 396.199 166.861 394.49 168.327C392.78 169.793 390.771 171.003 388.542 171.139C390.032 174.453 391.809 177.705 394.364 180.286C396.918 182.867 400.747 184.517 404.234 183.506C405.472 183.15 406.684 182.396 407.156 181.202C407.304 180.589 407.511 179.991 407.774 179.417C408.125 178.956 408.58 178.585 409.101 178.333C423.102 170.174 436.448 160.943 449.019 150.724C452.392 147.98 455.738 145.524 459.199 142.87C460.44 141.991 461.588 140.987 462.624 139.875C464.068 138.154 464.969 136.045 465.216 133.814C465.462 131.582 465.042 129.328 464.009 127.334C463.081 125.809 462.017 124.37 460.83 123.036C458.672 120.23 456.13 117.742 453.278 115.642Z" fill="#16697B"/>
<g opacity="0.1">
<path opacity="0.1" d="M440.863 107.72C439.814 107.72 438.603 107.626 437.931 106.736C437.323 105.93 437.407 104.752 437.638 103.736C437.869 102.72 438.262 101.715 438.162 100.673C437.947 98.5783 436.112 97.2902 435.54 95.3634C435.167 94.1015 435.986 93.5674 435.902 92.426C435.828 91.4364 434.753 90.9442 433.94 91.0751C433.033 91.2217 432.262 91.8343 431.402 92.1746C430.824 92.3985 430.206 92.4975 429.588 92.465C428.969 92.4325 428.365 92.2693 427.814 91.9861C427.43 91.7999 427.095 91.5275 426.834 91.1903C426.131 90.2164 426.377 88.8027 426.807 87.6612C426.807 87.6193 426.844 87.5827 426.86 87.5408C426.421 88.2414 426.052 88.9832 425.758 89.7556C425.328 90.8971 425.082 92.3108 425.785 93.2847C426.046 93.6219 426.381 93.8943 426.765 94.0805C427.316 94.3637 427.92 94.5269 428.539 94.5594C429.157 94.5919 429.776 94.4929 430.353 94.269C431.213 93.9287 431.984 93.3161 432.891 93.1695C433.704 93.0386 434.779 93.5308 434.853 94.5204C434.937 95.6618 434.119 96.1959 434.491 97.4578C435.052 99.3846 436.888 100.694 437.113 102.767C437.218 103.814 436.835 104.82 436.589 105.83C436.342 106.841 436.274 108.024 436.883 108.83C437.554 109.72 438.755 109.804 439.814 109.815C440.874 109.825 442.237 109.752 442.909 108.768C443.199 108.273 443.389 107.727 443.47 107.16C442.757 107.668 441.76 107.731 440.863 107.72Z" fill="black"/>
<path opacity="0.1" d="M458.323 107.532C456.823 108.296 455.024 108.055 453.509 107.322C451.993 106.589 450.692 105.432 449.392 104.327C448.802 103.76 448.105 103.317 447.341 103.024C446.96 102.888 446.548 102.865 446.154 102.958C445.761 103.051 445.402 103.256 445.122 103.547C444.766 104.073 444.541 104.676 444.467 105.307C444.74 105.146 445.044 105.046 445.358 105.012C445.673 104.979 445.992 105.013 446.292 105.113C447.056 105.406 447.753 105.849 448.343 106.417C449.643 107.521 450.965 108.684 452.46 109.412C453.955 110.139 455.774 110.385 457.274 109.621C458.601 108.846 459.568 107.58 459.965 106.097C459.534 106.694 458.973 107.184 458.323 107.532Z" fill="black"/>
</g>
<path d="M327.797 332.622C336.487 332.622 343.531 325.59 343.531 316.914C343.531 308.239 336.487 301.206 327.797 301.206C319.107 301.206 312.062 308.239 312.062 316.914C312.062 325.59 319.107 332.622 327.797 332.622Z" fill="#3F3D56"/>
<path opacity="0.1" d="M327.797 332.622C336.487 332.622 343.531 325.59 343.531 316.914C343.531 308.239 336.487 301.206 327.797 301.206C319.107 301.206 312.062 308.239 312.062 316.914C312.062 325.59 319.107 332.622 327.797 332.622Z" fill="black"/>
<path d="M327.797 326.863C333.301 326.863 337.762 322.409 337.762 316.914C337.762 311.42 333.301 306.966 327.797 306.966C322.294 306.966 317.832 311.42 317.832 316.914C317.832 322.409 322.294 326.863 327.797 326.863Z" fill="#65617D"/>
<path opacity="0.1" d="M327.797 326.863C333.301 326.863 337.762 322.409 337.762 316.914C337.762 311.42 333.301 306.966 327.797 306.966C322.294 306.966 317.832 311.42 317.832 316.914C317.832 322.409 322.294 326.863 327.797 326.863Z" fill="black"/>
<path d="M315.734 292.305L326.056 315.605C326.21 315.955 326.46 316.253 326.778 316.465C327.096 316.676 327.468 316.793 327.85 316.801C328.232 316.808 328.608 316.707 328.934 316.508C329.261 316.309 329.523 316.022 329.691 315.679L341.958 290.734L315.734 292.305Z" fill="#3F3D56"/>
<path opacity="0.1" d="M315.734 292.305L326.056 315.605C326.21 315.955 326.46 316.253 326.778 316.465C327.096 316.676 327.468 316.793 327.85 316.801C328.232 316.808 328.608 316.707 328.934 316.508C329.261 316.309 329.523 316.022 329.691 315.679L341.958 290.734L315.734 292.305Z" fill="black"/>
<path d="M229.721 332.622C238.41 332.622 245.455 325.59 245.455 316.914C245.455 308.239 238.41 301.206 229.721 301.206C221.031 301.206 213.986 308.239 213.986 316.914C213.986 325.59 221.031 332.622 229.721 332.622Z" fill="#3F3D56"/>
<path opacity="0.1" d="M229.721 332.622C238.41 332.622 245.455 325.59 245.455 316.914C245.455 308.239 238.41 301.206 229.721 301.206C221.031 301.206 213.986 308.239 213.986 316.914C213.986 325.59 221.031 332.622 229.721 332.622Z" fill="black"/>
<path d="M229.72 326.863C235.223 326.863 239.685 322.409 239.685 316.914C239.685 311.42 235.223 306.966 229.72 306.966C224.216 306.966 219.755 311.42 219.755 316.914C219.755 322.409 224.216 326.863 229.72 326.863Z" fill="#65617D"/>
<path opacity="0.1" d="M229.72 326.863C235.223 326.863 239.685 322.409 239.685 316.914C239.685 311.42 235.223 306.966 229.72 306.966C224.216 306.966 219.755 311.42 219.755 316.914C219.755 322.409 224.216 326.863 229.72 326.863Z" fill="black"/>
<path d="M217.657 292.305L227.979 315.605C228.133 315.955 228.383 316.253 228.701 316.465C229.019 316.676 229.391 316.793 229.773 316.801C230.155 316.808 230.531 316.707 230.857 316.508C231.183 316.309 231.446 316.022 231.614 315.679L243.881 290.734L217.657 292.305Z" fill="#3F3D56"/>
<path opacity="0.1" d="M217.657 292.305L227.979 315.605C228.133 315.955 228.383 316.253 228.701 316.465C229.019 316.676 229.391 316.793 229.773 316.801C230.155 316.808 230.531 316.707 230.857 316.508C231.183 316.309 231.446 316.022 231.614 315.679L243.881 290.734L217.657 292.305Z" fill="black"/>
<path d="M378.86 180.124C378.817 179.727 378.675 179.348 378.447 179.02C378.219 178.693 377.912 178.428 377.554 178.249C377.253 178.121 376.929 178.055 376.602 178.054C376.275 178.054 375.951 178.119 375.65 178.246C375.348 178.373 375.075 178.559 374.848 178.794C374.62 179.028 374.441 179.306 374.323 179.611L365.297 201.984L362.675 302.515H366.871L368.444 202.199L378.64 181.642C378.872 181.172 378.949 180.64 378.86 180.124Z" fill="#3F3D56"/>
<path d="M193.27 294.661L207.43 285.76L360.315 284.451L364.249 294.661H193.27Z" fill="#16697B"/>
<path d="M193.27 304.086V294.661L367.018 292.986L366.85 299.374H196.416V304.086H193.27Z" fill="#3F3D56"/>
<path d="M215.297 338.12C223.987 338.12 231.031 331.087 231.031 322.412C231.031 313.737 223.987 306.704 215.297 306.704C206.607 306.704 199.562 313.737 199.562 322.412C199.562 331.087 206.607 338.12 215.297 338.12Z" fill="#3F3D56"/>
<path d="M215.297 332.361C220.801 332.361 225.262 327.907 225.262 322.412C225.262 316.918 220.801 312.464 215.297 312.464C209.794 312.464 205.332 316.918 205.332 322.412C205.332 327.907 209.794 332.361 215.297 332.361Z" fill="#65617D"/>
<path d="M203.234 297.803L213.556 321.103C213.71 321.452 213.96 321.751 214.278 321.962C214.596 322.174 214.968 322.291 215.35 322.299C215.732 322.306 216.108 322.205 216.434 322.006C216.761 321.807 217.023 321.519 217.191 321.176L229.458 296.232L203.234 297.803Z" fill="#3F3D56"/>
<path d="M337.5 338.12C346.19 338.12 353.234 331.087 353.234 322.412C353.234 313.737 346.19 306.704 337.5 306.704C328.81 306.704 321.766 313.737 321.766 322.412C321.766 331.087 328.81 338.12 337.5 338.12Z" fill="#3F3D56"/>
<path d="M337.5 332.361C343.004 332.361 347.465 327.907 347.465 322.412C347.465 316.918 343.004 312.464 337.5 312.464C331.997 312.464 327.535 316.918 327.535 322.412C327.535 327.907 331.997 332.361 337.5 332.361Z" fill="#65617D"/>
<path d="M325.438 297.803L335.759 321.103C335.913 321.452 336.163 321.751 336.481 321.962C336.799 322.174 337.171 322.291 337.553 322.299C337.935 322.306 338.311 322.205 338.638 322.006C338.964 321.807 339.226 321.519 339.394 321.176L351.661 296.232L325.438 297.803Z" fill="#3F3D56"/>
<path d="M278.497 253.559H212.938V289.687H278.497V253.559Z" fill="#65617D"/>
<path opacity="0.1" d="M255.944 259.842H236.014V264.031H255.944V259.842Z" fill="black"/>
<path opacity="0.1" d="M253.452 260.366H238.505V263.508H253.452V260.366Z" fill="black"/>
<path d="M345.105 253.559H279.546V289.687H345.105V253.559Z" fill="#65617D"/>
<path opacity="0.1" d="M322.552 259.842H302.622V264.031H322.552V259.842Z" fill="black"/>
<path opacity="0.1" d="M320.061 260.366H305.113V263.508H320.061V260.366Z" fill="black"/>
<path d="M278.497 216.383H212.938V252.512H278.497V216.383Z" fill="#65617D"/>
<path opacity="0.1" d="M255.944 222.666H236.014V226.855H255.944V222.666Z" fill="black"/>
<path opacity="0.1" d="M253.452 223.19H238.505V226.332H253.452V223.19Z" fill="black"/>
<path d="M345.105 216.383H279.546V252.512H345.105V216.383Z" fill="#65617D"/>
<path opacity="0.1" d="M322.552 222.666H302.622V226.855H322.552V222.666Z" fill="black"/>
<path opacity="0.1" d="M320.061 223.19H305.113V226.332H320.061V223.19Z" fill="black"/>
<path d="M278.497 178.684H212.938V214.812H278.497V178.684Z" fill="#65617D"/>
<path opacity="0.1" d="M255.944 184.967H236.014V189.156H255.944V184.967Z" fill="black"/>
<path opacity="0.1" d="M253.452 185.491H238.505V188.633H253.452V185.491Z" fill="black"/>
<path d="M345.105 178.684H279.546V214.812H345.105V178.684Z" fill="#65617D"/>
<path opacity="0.1" d="M322.552 184.967H302.622V189.156H322.552V184.967Z" fill="black"/>
<path opacity="0.1" d="M320.061 185.491H305.113V188.633H320.061V185.491Z" fill="black"/>
<path d="M345.105 140.985H279.546V177.113H345.105V140.985Z" fill="#65617D"/>
<path opacity="0.1" d="M322.552 147.268H302.622V151.457H322.552V147.268Z" fill="black"/>
<path opacity="0.1" d="M320.061 147.791H305.113V150.934H320.061V147.791Z" fill="black"/>
</g>
<g opacity="0.5">
<ellipse cx="25.7419" cy="266.791" rx="2.7419" ry="2.7907" fill="url(#paint1_linear_95_612)"/>
<ellipse cx="37.1208" cy="266.791" rx="2.7419" ry="2.7907" fill="url(#paint2_linear_95_612)"/>
<ellipse cx="48.4997" cy="266.791" rx="2.7419" ry="2.7907" fill="url(#paint3_linear_95_612)"/>
<ellipse cx="59.8786" cy="266.791" rx="2.7419" ry="2.7907" fill="url(#paint4_linear_95_612)"/>
<ellipse cx="71.2585" cy="266.791" rx="2.7419" ry="2.7907" fill="url(#paint5_linear_95_612)"/>
<ellipse cx="25.7419" cy="281.674" rx="2.7419" ry="2.7907" fill="url(#paint6_linear_95_612)"/>
<ellipse cx="37.1208" cy="281.674" rx="2.7419" ry="2.7907" fill="url(#paint7_linear_95_612)"/>
<ellipse cx="48.4997" cy="281.674" rx="2.7419" ry="2.7907" fill="url(#paint8_linear_95_612)"/>
<ellipse cx="59.8786" cy="281.674" rx="2.7419" ry="2.7907" fill="url(#paint9_linear_95_612)"/>
<ellipse cx="71.2585" cy="281.674" rx="2.7419" ry="2.7907" fill="url(#paint10_linear_95_612)"/>
<ellipse cx="25.7419" cy="296.558" rx="2.7419" ry="2.7907" fill="url(#paint11_linear_95_612)"/>
<ellipse cx="37.1208" cy="296.558" rx="2.7419" ry="2.7907" fill="url(#paint12_linear_95_612)"/>
<ellipse cx="48.4997" cy="296.558" rx="2.7419" ry="2.7907" fill="url(#paint13_linear_95_612)"/>
<ellipse cx="59.8786" cy="296.558" rx="2.7419" ry="2.7907" fill="url(#paint14_linear_95_612)"/>
<ellipse cx="71.2585" cy="296.558" rx="2.7419" ry="2.7907" fill="url(#paint15_linear_95_612)"/>
<ellipse cx="25.7419" cy="311.442" rx="2.7419" ry="2.7907" fill="url(#paint16_linear_95_612)"/>
<ellipse cx="37.1208" cy="311.442" rx="2.7419" ry="2.7907" fill="url(#paint17_linear_95_612)"/>
<ellipse cx="48.4997" cy="311.442" rx="2.7419" ry="2.7907" fill="url(#paint18_linear_95_612)"/>
<ellipse cx="59.8786" cy="311.442" rx="2.7419" ry="2.7907" fill="url(#paint19_linear_95_612)"/>
<ellipse cx="71.2585" cy="311.442" rx="2.7419" ry="2.7907" fill="url(#paint20_linear_95_612)"/>
<ellipse cx="25.7419" cy="326.326" rx="2.7419" ry="2.7907" fill="url(#paint21_linear_95_612)"/>
<ellipse cx="37.1208" cy="326.326" rx="2.7419" ry="2.7907" fill="url(#paint22_linear_95_612)"/>
<ellipse cx="48.4997" cy="326.326" rx="2.7419" ry="2.7907" fill="url(#paint23_linear_95_612)"/>
<ellipse cx="59.8786" cy="326.326" rx="2.7419" ry="2.7907" fill="url(#paint24_linear_95_612)"/>
<ellipse cx="71.2585" cy="326.326" rx="2.7419" ry="2.7907" fill="url(#paint25_linear_95_612)"/>
<ellipse cx="25.7419" cy="341.209" rx="2.7419" ry="2.7907" fill="url(#paint26_linear_95_612)"/>
<ellipse cx="37.1208" cy="341.209" rx="2.7419" ry="2.7907" fill="url(#paint27_linear_95_612)"/>
<ellipse cx="48.4997" cy="341.209" rx="2.7419" ry="2.7907" fill="url(#paint28_linear_95_612)"/>
<ellipse cx="59.8786" cy="341.209" rx="2.7419" ry="2.7907" fill="url(#paint29_linear_95_612)"/>
<ellipse cx="71.2585" cy="341.209" rx="2.7419" ry="2.7907" fill="url(#paint30_linear_95_612)"/>
</g>
<defs>
<linearGradient id="paint0_linear_95_612" x1="460.4" y1="332.172" x2="460.4" y2="79.1998" gradientUnits="userSpaceOnUse">
<stop stop-color="#808080" stop-opacity="0.25"/>
<stop offset="0.54" stop-color="#808080" stop-opacity="0.12"/>
<stop offset="1" stop-color="#808080" stop-opacity="0.1"/>
</linearGradient>
<linearGradient id="paint1_linear_95_612" x1="29.2208" y1="275.803" x2="-9.58675" y2="179.014" gradientUnits="userSpaceOnUse">
<stop stop-color="#97C3F9"/>
<stop offset="1" stop-color="#93C1F9"/>
</linearGradient>
<linearGradient id="paint2_linear_95_612" x1="40.5997" y1="275.803" x2="1.79215" y2="179.014" gradientUnits="userSpaceOnUse">
<stop stop-color="#97C3F9"/>
<stop offset="1" stop-color="#93C1F9"/>
</linearGradient>
<linearGradient id="paint3_linear_95_612" x1="51.9786" y1="275.803" x2="13.1711" y2="179.014" gradientUnits="userSpaceOnUse">
<stop stop-color="#97C3F9"/>
<stop offset="1" stop-color="#93C1F9"/>
</linearGradient>
<linearGradient id="paint4_linear_95_612" x1="63.3575" y1="275.803" x2="24.55" y2="179.014" gradientUnits="userSpaceOnUse">
<stop stop-color="#97C3F9"/>
<stop offset="1" stop-color="#93C1F9"/>
</linearGradient>
<linearGradient id="paint5_linear_95_612" x1="74.7374" y1="275.803" x2="35.9299" y2="179.014" gradientUnits="userSpaceOnUse">
<stop stop-color="#97C3F9"/>
<stop offset="1" stop-color="#93C1F9"/>
</linearGradient>
<linearGradient id="paint6_linear_95_612" x1="29.2208" y1="290.687" x2="-9.58675" y2="193.897" gradientUnits="userSpaceOnUse">
<stop stop-color="#97C3F9"/>
<stop offset="1" stop-color="#93C1F9"/>
</linearGradient>
<linearGradient id="paint7_linear_95_612" x1="40.5997" y1="290.687" x2="1.79215" y2="193.897" gradientUnits="userSpaceOnUse">
<stop stop-color="#97C3F9"/>
<stop offset="1" stop-color="#93C1F9"/>
</linearGradient>
<linearGradient id="paint8_linear_95_612" x1="51.9786" y1="290.687" x2="13.1711" y2="193.897" gradientUnits="userSpaceOnUse">
<stop stop-color="#97C3F9"/>
<stop offset="1" stop-color="#93C1F9"/>
</linearGradient>
<linearGradient id="paint9_linear_95_612" x1="63.3575" y1="290.687" x2="24.55" y2="193.897" gradientUnits="userSpaceOnUse">
<stop stop-color="#97C3F9"/>
<stop offset="1" stop-color="#93C1F9"/>
</linearGradient>
<linearGradient id="paint10_linear_95_612" x1="74.7374" y1="290.687" x2="35.9299" y2="193.897" gradientUnits="userSpaceOnUse">
<stop stop-color="#97C3F9"/>
<stop offset="1" stop-color="#93C1F9"/>
</linearGradient>
<linearGradient id="paint11_linear_95_612" x1="29.2208" y1="305.57" x2="-9.58675" y2="208.781" gradientUnits="userSpaceOnUse">
<stop stop-color="#97C3F9"/>
<stop offset="1" stop-color="#93C1F9"/>
</linearGradient>
<linearGradient id="paint12_linear_95_612" x1="40.5997" y1="305.57" x2="1.79215" y2="208.781" gradientUnits="userSpaceOnUse">
<stop stop-color="#97C3F9"/>
<stop offset="1" stop-color="#93C1F9"/>
</linearGradient>
<linearGradient id="paint13_linear_95_612" x1="51.9786" y1="305.57" x2="13.1711" y2="208.781" gradientUnits="userSpaceOnUse">
<stop stop-color="#97C3F9"/>
<stop offset="1" stop-color="#93C1F9"/>
</linearGradient>
<linearGradient id="paint14_linear_95_612" x1="63.3575" y1="305.57" x2="24.55" y2="208.781" gradientUnits="userSpaceOnUse">
<stop stop-color="#97C3F9"/>
<stop offset="1" stop-color="#93C1F9"/>
</linearGradient>
<linearGradient id="paint15_linear_95_612" x1="74.7374" y1="305.57" x2="35.9299" y2="208.781" gradientUnits="userSpaceOnUse">
<stop stop-color="#97C3F9"/>
<stop offset="1" stop-color="#93C1F9"/>
</linearGradient>
<linearGradient id="paint16_linear_95_612" x1="29.2208" y1="320.454" x2="-9.58675" y2="223.665" gradientUnits="userSpaceOnUse">
<stop stop-color="#97C3F9"/>
<stop offset="1" stop-color="#93C1F9"/>
</linearGradient>
<linearGradient id="paint17_linear_95_612" x1="40.5997" y1="320.454" x2="1.79215" y2="223.665" gradientUnits="userSpaceOnUse">
<stop stop-color="#97C3F9"/>
<stop offset="1" stop-color="#93C1F9"/>
</linearGradient>
<linearGradient id="paint18_linear_95_612" x1="51.9786" y1="320.454" x2="13.1711" y2="223.665" gradientUnits="userSpaceOnUse">
<stop stop-color="#97C3F9"/>
<stop offset="1" stop-color="#93C1F9"/>
</linearGradient>
<linearGradient id="paint19_linear_95_612" x1="63.3575" y1="320.454" x2="24.55" y2="223.665" gradientUnits="userSpaceOnUse">
<stop stop-color="#97C3F9"/>
<stop offset="1" stop-color="#93C1F9"/>
</linearGradient>
<linearGradient id="paint20_linear_95_612" x1="74.7374" y1="320.454" x2="35.9299" y2="223.665" gradientUnits="userSpaceOnUse">
<stop stop-color="#97C3F9"/>
<stop offset="1" stop-color="#93C1F9"/>
</linearGradient>
<linearGradient id="paint21_linear_95_612" x1="29.2208" y1="335.338" x2="-9.58675" y2="238.549" gradientUnits="userSpaceOnUse">
<stop stop-color="#97C3F9"/>
<stop offset="1" stop-color="#93C1F9"/>
</linearGradient>
<linearGradient id="paint22_linear_95_612" x1="40.5997" y1="335.338" x2="1.79215" y2="238.549" gradientUnits="userSpaceOnUse">
<stop stop-color="#97C3F9"/>
<stop offset="1" stop-color="#93C1F9"/>
</linearGradient>
<linearGradient id="paint23_linear_95_612" x1="51.9786" y1="335.338" x2="13.1711" y2="238.549" gradientUnits="userSpaceOnUse">
<stop stop-color="#97C3F9"/>
<stop offset="1" stop-color="#93C1F9"/>
</linearGradient>
<linearGradient id="paint24_linear_95_612" x1="63.3575" y1="335.338" x2="24.55" y2="238.549" gradientUnits="userSpaceOnUse">
<stop stop-color="#97C3F9"/>
<stop offset="1" stop-color="#93C1F9"/>
</linearGradient>
<linearGradient id="paint25_linear_95_612" x1="74.7374" y1="335.338" x2="35.9299" y2="238.549" gradientUnits="userSpaceOnUse">
<stop stop-color="#97C3F9"/>
<stop offset="1" stop-color="#93C1F9"/>
</linearGradient>
<linearGradient id="paint26_linear_95_612" x1="29.2208" y1="350.221" x2="-9.58675" y2="253.432" gradientUnits="userSpaceOnUse">
<stop stop-color="#97C3F9"/>
<stop offset="1" stop-color="#93C1F9"/>
</linearGradient>
<linearGradient id="paint27_linear_95_612" x1="40.5997" y1="350.221" x2="1.79215" y2="253.432" gradientUnits="userSpaceOnUse">
<stop stop-color="#97C3F9"/>
<stop offset="1" stop-color="#93C1F9"/>
</linearGradient>
<linearGradient id="paint28_linear_95_612" x1="51.9786" y1="350.221" x2="13.1711" y2="253.432" gradientUnits="userSpaceOnUse">
<stop stop-color="#97C3F9"/>
<stop offset="1" stop-color="#93C1F9"/>
</linearGradient>
<linearGradient id="paint29_linear_95_612" x1="63.3575" y1="350.221" x2="24.55" y2="253.432" gradientUnits="userSpaceOnUse">
<stop stop-color="#97C3F9"/>
<stop offset="1" stop-color="#93C1F9"/>
</linearGradient>
<linearGradient id="paint30_linear_95_612" x1="74.7374" y1="350.221" x2="35.9299" y2="253.432" gradientUnits="userSpaceOnUse">
<stop stop-color="#97C3F9"/>
<stop offset="1" stop-color="#93C1F9"/>
</linearGradient>
<clipPath id="clip0_95_612">
<rect width="600" height="341" fill="white"/>
</clipPath>
</defs>
</svg>
